<?xml version="1.0" encoding="UTF-8" standalone="no"?> <!-- Created with Vectornator for iOS (http://vectornator.io/) --><!DOCTYPE svg PUBLIC "-//W3C//DTD SVG 1.1//EN" "http://www.w3.org/Graphics/SVG/1.1/DTD/svg11.dtd">
<svg height="100%" style="fill-rule:evenodd;clip-rule:evenodd;stroke-linecap:round;stroke-linejoin:round;" xmlns:xlink="http://www.w3.org/1999/xlink" xmlns="http://www.w3.org/2000/svg" xml:space="preserve" width="100%" xmlns:vectornator="http://vectornator.io" version="1.1" viewBox="0 0 841.995 1196.37">
<metadata>
<vectornator:setting key="RulersVisible" value="1"/>
<vectornator:setting key="SnapToEdges" value="0"/>
<vectornator:setting key="DimensionsVisible" value="1"/>
<vectornator:setting key="Units" value="Millimeters"/>
<vectornator:setting key="DynamicGuides" value="0"/>
<vectornator:setting key="SnapToPoints" value="0"/>
<vectornator:setting key="CMYKEnabledKey" value="0"/>
<vectornator:setting key="SnapToGrid" value="0"/>
<vectornator:setting key="GuidesVisible" value="1"/>
<vectornator:setting key="ShowGrid" value="0"/>
<vectornator:setting key="GridSpacing" value="36"/>
</metadata>
<defs>
<linearGradient y1="561.91" id="LinearGradient" x1="491.752" y2="78.6531" x2="483.64" gradientUnits="userSpaceOnUse" gradientTransform="matrix(1 0 0 1 0 0)">
<stop stop-color="#b2ede3" offset="0"/>
<stop stop-color="#4a92a6" offset="1"/>
</linearGradient>
<linearGradient y1="53.119" id="LinearGradient_2" x1="808.642" y2="105.557" x2="-285.053" gradientUnits="userSpaceOnUse" gradientTransform="matrix(1 0 0 1 0 0)">
<stop stop-color="#b2ede3" offset="0"/>
<stop stop-color="#4a92a6" offset="1"/>
</linearGradient>
<linearGradient y1="10.9639" id="LinearGradient_3" x1="289.222" y2="307.527" x2="288.117" gradientUnits="userSpaceOnUse" gradientTransform="matrix(0.389812 0 0 1 201.073 10.0914)">
<stop stop-color="#ffffff" offset="0"/>
<stop stop-color="#ffffff" offset="1"/>
</linearGradient>
<linearGradient y1="188.688" id="LinearGradient_4" x1="405.957" y2="188.688" x2="452.09" gradientUnits="userSpaceOnUse" gradientTransform="matrix(1 0 0 1 -311.551 47.3642)">
<stop stop-color="#ffffff" offset="0"/>
<stop stop-color="#ffffff" offset="1"/>
</linearGradient>
<linearGradient y1="10.9639" id="LinearGradient_5" x1="289.222" y2="307.527" x2="288.117" gradientUnits="userSpaceOnUse" gradientTransform="matrix(0.452851 0 0 1 128.273 3.36381)">
<stop stop-color="#ffffff" offset="0"/>
<stop stop-color="#ffffff" offset="1"/>
</linearGradient>
<linearGradient y1="31.0424" id="LinearGradient_6" x1="397.951" y2="155.384" x2="409.837" gradientUnits="userSpaceOnUse" gradientTransform="matrix(1.52143 0 0 1.87356 -200.728 33.9228)">
<stop stop-color="#ffffff" offset="0"/>
<stop stop-color="#ffffff" offset="1"/>
</linearGradient>
<linearGradient y1="474.777" id="LinearGradient_7" x1="137.378" y2="824.221" x2="177.032" gradientUnits="userSpaceOnUse" gradientTransform="matrix(1 0 0 1 0 0)">
<stop stop-color="#76689e" offset="0"/>
<stop stop-color="#414273" offset="1"/>
</linearGradient>
<linearGradient y1="384.939" id="LinearGradient_8" x1="158.248" y2="655.371" x2="142.363" gradientUnits="userSpaceOnUse" gradientTransform="matrix(1 0 0 1 0 0)">
<stop stop-color="#76689e" offset="0"/>
<stop stop-color="#414273" offset="1"/>
</linearGradient>
<linearGradient y1="428.698" id="LinearGradient_9" x1="39.905" y2="565.472" x2="-10.4154" gradientUnits="userSpaceOnUse" gradientTransform="matrix(1 0 0 1 0 0)">
<stop stop-color="#76689e" offset="0"/>
<stop stop-color="#414273" offset="1"/>
</linearGradient>
<linearGradient y1="768.312" id="LinearGradient_10" x1="177.535" y2="686.785" x2="171.421" gradientUnits="userSpaceOnUse" gradientTransform="matrix(1 0 0 1 0 0)">
<stop stop-color="#1c2866" offset="0"/>
<stop stop-color="#3c4ea8" offset="1"/>
</linearGradient>
<linearGradient y1="533.759" id="LinearGradient_11" x1="716.948" y2="449.732" x2="762.848" gradientUnits="userSpaceOnUse" gradientTransform="matrix(1 0 0 1 0 0)">
<stop stop-color="#1c2866" offset="0"/>
<stop stop-color="#2a3a8c" offset="1"/>
</linearGradient>
<linearGradient y1="603.359" id="LinearGradient_12" x1="899.809" y2="459.101" x2="837.77" gradientUnits="userSpaceOnUse" gradientTransform="matrix(1 0 0 1 0 0)">
<stop stop-color="#0e1432" offset="0"/>
<stop stop-color="#111c54" offset="1"/>
</linearGradient>
<linearGradient y1="614.072" id="LinearGradient_13" x1="736.745" y2="493.545" x2="802.714" gradientUnits="userSpaceOnUse" gradientTransform="matrix(1 0 0 1 0 0)">
<stop stop-color="#0e1432" offset="0"/>
<stop stop-color="#111c54" offset="1"/>
</linearGradient>
<linearGradient y1="736.527" id="LinearGradient_14" x1="250.315" y2="736.527" x2="371.485" gradientUnits="userSpaceOnUse" gradientTransform="matrix(1 0 0 1 0 0)">
<stop stop-color="#1c2866" offset="0"/>
<stop stop-color="#2a3a8c" offset="1"/>
</linearGradient>
<linearGradient y1="696.976" id="LinearGradient_15" x1="-35.7921" y2="696.976" x2="61.3602" gradientUnits="userSpaceOnUse" gradientTransform="matrix(1 0 0 1 0 0)">
<stop stop-color="#0e1432" offset="0"/>
<stop stop-color="#111c54" offset="1"/>
</linearGradient>
<linearGradient y1="653.297" id="LinearGradient_16" x1="639.531" y2="653.297" x2="641.156" gradientUnits="userSpaceOnUse" gradientTransform="matrix(1 0 0 1 0 0)">
<stop stop-color="#76689e" offset="0"/>
<stop stop-color="#414273" offset="1"/>
</linearGradient>
<linearGradient y1="644.781" id="LinearGradient_17" x1="595.469" y2="644.781" x2="597.094" gradientUnits="userSpaceOnUse" gradientTransform="matrix(1 0 0 1 0 0)">
<stop stop-color="#76689e" offset="0"/>
<stop stop-color="#414273" offset="1"/>
</linearGradient>
<linearGradient y1="651.969" id="LinearGradient_18" x1="557.375" y2="651.969" x2="559.031" gradientUnits="userSpaceOnUse" gradientTransform="matrix(1 0 0 1 0 0)">
<stop stop-color="#76689e" offset="0"/>
<stop stop-color="#414273" offset="1"/>
</linearGradient>
<linearGradient y1="662.234" id="LinearGradient_19" x1="520.312" y2="662.234" x2="521.969" gradientUnits="userSpaceOnUse" gradientTransform="matrix(1 0 0 1 0 0)">
<stop stop-color="#76689e" offset="0"/>
<stop stop-color="#414273" offset="1"/>
</linearGradient>
<linearGradient y1="670.438" id="LinearGradient_20" x1="489.031" y2="670.438" x2="490.656" gradientUnits="userSpaceOnUse" gradientTransform="matrix(1 0 0 1 0 0)">
<stop stop-color="#76689e" offset="0"/>
<stop stop-color="#414273" offset="1"/>
</linearGradient>
<linearGradient y1="676.188" id="LinearGradient_21" x1="459.25" y2="676.188" x2="462.312" gradientUnits="userSpaceOnUse" gradientTransform="matrix(1 0 0 1 0 0)">
<stop stop-color="#76689e" offset="0"/>
<stop stop-color="#414273" offset="1"/>
</linearGradient>
<linearGradient y1="681.719" id="LinearGradient_22" x1="432.562" y2="681.719" x2="435.781" gradientUnits="userSpaceOnUse" gradientTransform="matrix(1 0 0 1 0 0)">
<stop stop-color="#76689e" offset="0"/>
<stop stop-color="#414273" offset="1"/>
</linearGradient>
<linearGradient y1="688.375" id="LinearGradient_23" x1="404.969" y2="688.375" x2="408.688" gradientUnits="userSpaceOnUse" gradientTransform="matrix(1 0 0 1 0 0)">
<stop stop-color="#76689e" offset="0"/>
<stop stop-color="#414273" offset="1"/>
</linearGradient>
<linearGradient y1="769.256" id="LinearGradient_24" x1="670.096" y2="790.417" x2="670.14" gradientUnits="userSpaceOnUse" gradientTransform="matrix(1 0 0 1 0 0)">
<stop stop-color="#6bb3c7" offset="0"/>
<stop stop-color="#6285a3" offset="1"/>
</linearGradient>
<linearGradient y1="760.78" id="LinearGradient_25" x1="576.736" y2="800.071" x2="611.016" gradientUnits="userSpaceOnUse" gradientTransform="matrix(1 0 0 1 0 0)">
<stop stop-color="#6bb3c7" offset="0"/>
<stop stop-color="#b2ede3" offset="1"/>
</linearGradient>
<linearGradient y1="813.566" id="LinearGradient_26" x1="163.014" y2="788.627" x2="92.3159" gradientUnits="userSpaceOnUse" gradientTransform="matrix(1 0 0 1 0 0)">
<stop stop-color="#6bb3c7" offset="0"/>
<stop stop-color="#6285a3" offset="1"/>
</linearGradient>
<linearGradient y1="640.846" id="LinearGradient_27" x1="326.412" y2="568.1" x2="152.8" gradientUnits="userSpaceOnUse" gradientTransform="matrix(1 0 0 1 0 0)">
<stop stop-color="#6bb3c7" offset="0"/>
<stop stop-color="#6285a3" offset="1"/>
</linearGradient>
<linearGradient y1="517.817" id="LinearGradient_28" x1="475.282" y2="627.106" x2="521.867" gradientUnits="userSpaceOnUse" gradientTransform="matrix(1 0 0 1 0 0)">
<stop stop-color="#6bb3c7" offset="0"/>
<stop stop-color="#b2ede3" offset="1"/>
</linearGradient>
<linearGradient y1="776.817" id="LinearGradient_29" x1="458.313" y2="776.817" x2="514.274" gradientUnits="userSpaceOnUse" gradientTransform="matrix(1 0 0 1 0 0)">
<stop stop-color="#76689e" offset="0"/>
<stop stop-color="#414273" offset="1"/>
</linearGradient>
<linearGradient y1="510.496" id="LinearGradient_30" x1="345.935" y2="510.496" x2="450.229" gradientUnits="userSpaceOnUse" gradientTransform="matrix(1 0 0 1 0 0)">
<stop stop-color="#b2ede3" offset="0"/>
<stop stop-color="#6bb3c7" offset="0.778932"/>
<stop stop-color="#538b9a" offset="1"/>
</linearGradient>
</defs>
<g id="Layer 5" vectornator:layerName="Layer 5">
<path d="M-5.42717-13.8707L848.531-13.8707L848.531+1207.72L-5.42717+1207.72L-5.42717-13.8707Z" opacity="1" fill="url(#LinearGradient)"/>
<path d="M-140.243+283.81L-145.47+190.506L789.641+231.473L-140.243+283.81Z" opacity="0.601073" fill="#b2eee4"/>
<path d="M90.1691+323.393C90.1691+236.824+160.348+166.645+246.917+166.645C333.487+166.645+403.665+236.824+403.665+323.393C403.665+409.963+333.487+480.141+246.917+480.141C160.348+480.141+90.1691+409.963+90.1691+323.393Z" opacity="1" fill="#fcf9f2"/>
<path d="M-49.5763+27.4668L906.583+29.2316L884.887+86.2571L237.19+94.042L729.959+107.665L-74.4071+129.572L655.409+142.374L-104.315+171.089L-123.76+77.867L-49.5763+27.4668Z" opacity="1" fill="url(#LinearGradient_2)"/>
</g>
<g id="Layer 12" vectornator:layerName="Layer 12">
<path d="M411.125+281.719L398.062+282.281C398.116+282.478+398.166+282.678+398.219+282.875L411.125+281.719Z" opacity="1" fill="#b7d2d5"/>
<path d="M406.125+387.344L388.656+389.938C385.512+396.63+381.96+403.085+377.938+409.219L394.719+408.656L406.125+387.344Z" opacity="1" fill="#b7d2d5"/>
<path d="M395.871+333.195C395.871+333.195+394.494+379.981+375.269+377.151" opacity="0.338104" fill="#b7d2d5"/>
<path d="M386.275+317C386.275+317+394.028+335.484+372.178+343.814" opacity="0.338104" fill="#b7d2d5"/>
<path d="M363.238+362.495C363.238+362.495+369.896+389.697+340.302+392.888" opacity="0.338104" fill="#b7d2d5"/>
<path d="M372.095+309.186C372.095+309.186+372.566+336.344+352.489+345.469" opacity="0.338104" fill="#b7d2d5"/>
<path d="M338.544+379.491C338.544+379.491+343.859+391.599+326.483+394.902" opacity="0.338104" fill="#b7d2d5"/>
<path d="M294.049+406.556C294.049+406.556+278.447+441.867+243.485+420.873" opacity="0.338104" fill="#b7d2d5"/>
<path d="M323.781+402.381C323.781+402.381+319.077+422.084+305.396+416.711" opacity="0.338104" fill="#b7d2d5"/>
<path d="M342.964+343.438C342.964+343.438+344.47+375.009+317.335+375.824" opacity="0.338104" fill="#b7d2d5"/>
<path d="M387.153+276.393C387.153+276.393+398.003+294.102+384.565+307.707" opacity="0.338104" fill="#b7d2d5"/>
<path d="M330.911+331.683C330.911+331.683+335.643+350.364+321.35+345.666" opacity="0.338104" fill="#b7d2d5"/>
<path d="M284.377+385.81C284.377+385.81+279.166+421.758+241.539+398.644" opacity="0.338104" fill="#b7d2d5"/>
<path d="M236.362+410.839C236.362+410.839+230.341+424.031+202.202+416.895" opacity="0.338104" fill="#b7d2d5"/>
<path d="M267.882+367.794C267.882+367.794+272.731+381.465+255.961+382.063" opacity="0.338104" fill="#b7d2d5"/>
<path d="M322.099+299.912C322.099+299.912+337.87+322.826+305.804+331.783" opacity="0.338104" fill="#b7d2d5"/>
<path d="M358.209+224.542C358.209+224.542+369.695+249.932+352.769+252.954" opacity="0.338104" fill="#b7d2d5"/>
<path d="M373.014+252.565C373.014+252.565+390.772+273.522+371.139+286.044" opacity="0.338104" fill="#b7d2d5"/>
<path d="M342.492+249.932C342.492+249.932+360.023+271.694+340.074+279.553" opacity="0.338104" fill="#b7d2d5"/>
<path d="M340.074+210.034C340.074+210.034+355.187+218.497+343.701+229.379" opacity="0.338104" fill="#b7d2d5"/>
<path d="M322.543+229.379C322.543+229.379+336.447+246.305+324.961+262.022" opacity="0.338104" fill="#b7d2d5"/>
<path d="M320.431+268.255C320.431+268.255+338.34+281.042+314.871+296.792" opacity="0.338104" fill="#b7d2d5"/>
<path d="M310.502+214.504C310.502+214.504+320.779+225.99+309.898+235.057" opacity="0.338104" fill="#b7d2d5"/>
<path d="M315.988+245.264C315.988+245.264+319.615+259.168+308.734+263.4" opacity="0.338104" fill="#b7d2d5"/>
<path d="M297.758+300.106C297.758+300.106+310.453+312.801+289.295+321.264" opacity="0.338104" fill="#b7d2d5"/>
<path d="M294.263+280.046C294.263+280.046+302.726+296.972+288.822+299.39" opacity="0.338104" fill="#b7d2d5"/>
<path d="M307.918+342.076C307.918+342.076+310.276+357.234+291.956+356.298" opacity="0.338104" fill="#b7d2d5"/>
<path d="M281.214+331.566C281.214+331.566+285.239+343.646+268.196+345.749" opacity="0.338104" fill="#b7d2d5"/>
<path d="M210.709+376.879C210.709+376.879+225.821+391.387+236.098+377.484" opacity="0.338104" fill="#b7d2d5"/>
<path d="M175.043+396.223C175.043+396.223+194.387+410.732+201.641+395.619" opacity="0.338104" fill="#b7d2d5"/>
<path d="M127.891+402.873C127.891+402.873+136.354+431.889+156.303+419.799" opacity="0.338104" fill="#b7d2d5"/>
<path d="M150.862+381.715C150.862+381.715+162.348+394.41+172.625+385.342" opacity="0.338104" fill="#b7d2d5"/>
<path d="M118.823+384.738C118.823+384.738+121.241+399.246+138.772+395.014" opacity="0.338104" fill="#b7d2d5"/>
<path d="M269.876+306.966C271.798+301.833+275.302+298.491+277.702+299.501C280.103+300.512+280.49+305.492+278.567+310.625C276.645+315.758+273.141+319.1+270.741+318.09C268.341+317.079+267.953+312.099+269.876+306.966Z" opacity="0.338104" fill="#b7d2d5"/>
<path d="M341.593+306.451C345.03+294.285+352.818+285.836+358.989+287.58C365.16+289.323+367.376+300.598+363.94+312.764C360.503+324.929+352.714+333.378+346.544+331.635C340.373+329.891+338.156+318.616+341.593+306.451Z" opacity="0.338104" fill="#b7d2d5"/>
<path d="M285.788+377.908C287.189+373.557+292.052+368.759+296.649+367.193C301.247+365.626+303.837+367.884+302.436+372.235C301.034+376.587+296.171+381.385+291.574+382.951C286.977+384.518+284.386+382.26+285.788+377.908Z" opacity="0.338104" fill="#b7d2d5"/>
<path d="M261.717+335.505C261.717+335.505+260.444+356.288+232.876+356.712" opacity="0.338104" fill="#b7d2d5"/>
<path d="M323.216+196.814C323.216+196.814+327.882+201.903+322.792+209.538" opacity="0.338104" fill="#b7d2d5"/>
<path d="M300.737+236.258C300.737+236.258+306.251+243.468+299.041+248.558" opacity="0.338104" fill="#b7d2d5"/>
<path d="M377.57+351.684C377.57+351.684+383.168+365.588+369.619+366.202" opacity="0.338104" fill="#b7d2d5"/>
<path d="M376.748+293.437C376.748+293.437+383.149+300.391+375.825+306.85" opacity="0.338104" fill="#b7d2d5"/>
<path d="M396.171+303.65C396.171+303.65+401.499+313.426+393.768+317.295" opacity="0.338104" fill="#b7d2d5"/>
<path d="M363.418+350.878C363.418+350.878+358.97+365.982+349.764+362.881" opacity="0.338104" fill="#b7d2d5"/>
<path d="M294.105+397.033C294.105+397.033+311.974+402.183+315+387.681" opacity="0.338104" fill="#b7d2d5"/>
<path d="M310.029+365.719C310.029+365.719+319.722+369.502+321.538+359.36" opacity="0.338104" fill="#b7d2d5"/>
<path d="M335.625+306.729C335.625+306.729+327.699+311.766+333.688+323.333" opacity="0.338104" fill="#b7d2d5"/>
<path d="M351.254+280.768C351.254+280.768+339.263+279.243+338.377+295.303" opacity="0.338104" fill="#b7d2d5"/>
<path d="M357.414+266.911C357.414+266.911+367.655+264.542+365.29+280.835" opacity="0.338104" fill="#b7d2d5"/>
<path d="M369.538+240.365C369.538+240.365+380.17+235.66+376.949+251.329" opacity="0.338104" fill="#b7d2d5"/>
<path d="M345.75+201.781C360.701+225.794+369.5+254.037+369.5+284.406C369.5+370.976+299.32+441.156+212.75+441.156C175.269+441.156+140.877+427.977+113.906+406.031C141.575+450.464+190.709+480.156+246.906+480.156C333.476+480.156+403.656+409.976+403.656+323.406C403.656+274.318+381.073+230.522+345.75+201.781Z" opacity="0.338104" fill="#b7d2d5"/>
</g>
<g id="Layer 13" vectornator:layerName="Layer 13">
<path d="M237.341-34.3133L359.158-34.3133L359.158+711.617L237.341+711.617L237.341-34.3133Z" opacity="0.306195" fill="url(#LinearGradient_3)"/>
<path d="M94.4057-12.8272L140.539-12.8272L140.539+484.931L94.4057+484.931L94.4057-12.8272Z" opacity="0.306195" fill="url(#LinearGradient_4)"/>
<path d="M170.406-41.0409L311.923-41.0409L311.923+704.889L170.406+704.889L170.406-41.0409Z" opacity="0.306195" fill="url(#LinearGradient_5)"/>
<path d="M372.176-36.2835L430.043-36.2835L430.043+536.023L372.176+536.023L372.176-36.2835Z" opacity="0.306195" fill="url(#LinearGradient_6)"/>
</g>
<g id="Layer 4" vectornator:layerName="Layer 4">
<path d="M692.526+809.972L175.608+412.489L93.289+471.986L30.7518+444.596L-52.5569+486.245L-71.4865+791.348L891.768+867.035L692.526+809.972Z" opacity="1" fill="url(#LinearGradient_7)"/>
<path d="M169.781+425.562L147.844+441.125C152.694+444.334+157.061+447.205+161.219+449.938L169.781+425.562ZM145.219+443L127.531+455.562L128.844+474.938C138.26+481.609+147.83+487.281+157.562+491.969L155.344+466.688L160.188+452.875C155.562+449.838+150.715+446.637+145.219+443ZM129.094+478.75L129.781+488.906L113.938+504.094C125.217+510.092+136.434+517.198+148.125+525.781C158.444+533.357+168.453+541.578+182.625+553.594L199.781+497.812L180.219+500.969C183.717+502.057+187.229+503.072+190.781+503.906C191.588+504.096+192.096+504.881+191.906+505.688C191.717+506.494+190.9+507.002+190.094+506.812C184.621+505.527+179.222+503.873+173.875+502L158.656+504.469L157.875+495.438C148.111+490.857+138.526+485.282+129.094+478.75ZM111.688+506.25L103.094+514.469L112.312+541.344C111.428+536.65+110.417+531.304+110.219+530.219C110.092+529.526+109.886+528.42+109.875+528.344C109.866+528.284+109.888+528.299+109.875+528.156C109.87+528.087+109.854+528.088+109.875+527.844C109.884+527.619+109.893+527.624+110.562+526.812L110.906+526.625L111.344+526.562L111.719+526.625L112+526.719L112.219+526.844L112.375+526.938C112.43+526.989+112.419+527.006+112.5+527.094C112.818+527.631+112.82+527.617+112.812+527.656C112.859+527.82+112.998+528.466+113.281+529.906C113.774+532.419+114.63+536.942+115.625+542.156C116.657+547.562+117.146+550.384+117.938+554.625L148.656+580.062L139.781+624.5L132.906+619.594C135.848+633.322+138.652+646.996+141.031+660.469C141.922+665.51+142.753+669.522+144.656+678.562C146.566+687.635+147.383+691.666+148.281+696.75C148.546+698.249+148.732+699.077+150.156+704.5C150.241+704.821+150.334+705.099+150.406+705.375C151.544+709.741+152.122+712.362+152.281+714.312C152.405+715.825+152.278+716.854+151.625+717.594C150.704+718.638+149.493+718.366+148.281+717.531C148.744+719.965+149.195+722.076+149.656+724.469L168.656+734.562L172.25+737.188C175.961+728.771+179.818+720.221+184.688+709.969C183.918+711.027+183.129+712.116+182.625+712.375C181.286+713.064+180.197+712.037+180.188+710.812C180.184+710.395+180.28+709.911+180.469+709.25C181.048+707.224+182.607+703.34+184.938+698.031C188.631+689.619+194.548+677.105+196.188+674.062C199.154+668.555+201.98+662.837+205.219+656.062L200.906+651.188L182.344+557.281C167.163+544.381+157.013+536.052+146.344+528.219C134.474+519.504+123.107+512.278+111.688+506.25ZM100.875+596.719L80.875+687.875L146.188+722.625C143.766+710.043+141.4+698.304+138.812+683.656C138.21+680.246+136.633+671.328+136.625+671.281C133.585+653.956+132.22+646.177+130.438+636.531C129.811+633.143+128.04+624.047+126.25+614.844L100.875+596.719ZM207.375+658.531C204.331+664.846+201.658+670.218+198.812+675.5C197.219+678.458+191.351+690.905+187.688+699.25C186.084+702.902+185.398+704.796+184.625+706.875C184.762+706.917+184.906+706.885+185.031+706.969C185.363+707.19+185.574+707.515+185.656+707.875C190.629+697.447+196.159+685.984+203.062+671.969C205.063+667.908+205.194+667.604+205.969+666.031C207.275+663.377+207.599+662.534+208.781+660.125L207.375+658.531ZM210.969+662.594C209.994+664.58+209.745+665.227+208.688+667.375C207.913+668.948+207.751+669.22+205.75+673.281C191.426+702.361+182.224+721.749+174.688+738.938L193.812+752.906C205.108+733.037+216.171+715.976+234.781+689.594L210.969+662.594ZM236.844+691.938C218.429+718.072+207.501+734.928+196.281+754.688L250.906+794.562L250.906+707.875L236.844+691.938Z" opacity="1" fill="url(#LinearGradient_8)"/>
<path d="M30.9688+453.75L-0.8125+471.312C4.87808+474.989+11.0383+479.082+20.1875+485.531C20.2981+485.609+23.0136+487.527+24.0312+488.25L24.9062+483.438L30.9688+453.75ZM-3.71875+472.906L-13.5312+478.344L-18.7188+495.562C-13.0321+501.317-7.16146+507.798+1.78125+518.531C1.9362+518.717+3.87484+521.013+4.4375+521.688C16.968+536.719+23.8076+544.267+32.1562+551.5C32.6297+551.91+33.4203+552.392+33.9062+552.781L40.5625+524.562L19.4375+513.188L23.4375+491.5C21.8609+490.38+18.6117+488.07+18.4688+487.969C9.15034+481.4+1.99093+476.568-3.71875+472.906ZM-19.6875+498.781L-44.0938+579.719L-14.1875+645.125L22.4688+587.625C19.0168+583.076+15.0115+578.054+9.4375+571.188C8.65135+570.219+8.20596+569.696+7.84375+569.25C3.05745+563.353+0.308955+559.915-2.59375+556.156C-3.70615+554.716-7.72306+549.679-7.34375+550.156C-10.6151+546.042-12.6753+543.1-14.5625+539.531C-14.7466+539.183-15.7976+537.512-15.8438+537.438C-16.5271+536.335-16.9191+535.648-17.1562+535.094C-17.4427+534.424-17.5206+533.999-17.25+533.375C-16.9555+532.695-16.3214+532.36-15.6562+532.406C-15.3363+532.429-15.0442+532.502-14.75+532.656C-0.386716+540.171+13.3912+549.929+31.125+564.656L33.1875+555.938C32.3078+555.268+31.0099+554.462+30.1875+553.75C21.6782+546.378+14.7565+538.747+2.125+523.594C1.56182+522.918-0.345437+520.623-0.5+520.438C-8.79933+510.476-14.3941+504.235-19.6875+498.781ZM-12.2188+537.625C-12.1238+537.788-12.007+537.994-11.9375+538.125C-10.1531+541.499-8.16594+544.331-5+548.312C-5.39614+547.814-1.35201+552.876-0.21875+554.344C2.66518+558.078+10.9637+568.313+11.75+569.281C17.0528+575.813+20.7845+580.549+24.1562+584.969L27.625+579.5L30.3438+567.938C13.8556+554.24+0.845205+544.885-12.2188+537.625Z" opacity="1" fill="url(#LinearGradient_9)"/>
<path d="M-47.5583+701.064L17.6398+555.887L66.4186+512.335L95.1633+638.637L161.363+641.25L229.305+717.903L382.003+798.125L429.878+863.707L148.532+980.443L-25.9162+984.378L-47.5583+701.064Z" opacity="1" fill="#334086"/>
<path d="M116.375+650.094L132.625+662.531C135.229+660.819+138.911+658.61+144.469+655.562C147.114+654.112+150.598+652.316+153.656+650.688L116.375+650.094ZM155.75+650.719C152.077+652.656+148.046+654.733+144.938+656.438C139.613+659.357+136.05+661.481+133.469+663.156L134.812+664.188C135.314+664.032+135.337+664.106+135.938+663.906C136.199+663.819+136.475+663.957+136.562+664.219C136.65+664.481+136.512+664.757+136.25+664.844C136.019+664.921+136.032+664.897+135.812+664.969L145.25+672.188C152.413+669.583+160.632+666.447+169.156+663.094L159.875+650.781L155.75+650.719ZM87.8438+662.312L92.625+686.094L107.5+720.062C107.979+719.667+109.92+718.056+110.062+717.938C111.306+716.892+112.379+715.976+114.406+714.188C114.544+714.066+116.892+711.981+118.531+710.531L115.031+703.094L87.8438+662.312ZM169.781+663.938C161.394+667.235+153.274+670.337+146.219+672.906L151.031+676.594L149.281+720.031C164.598+710.183+178.737+701.25+191.781+693.188L169.781+663.938ZM192.406+694C179.174+702.178+164.803+711.224+149.219+721.25L149+726.875L154.312+732.688C159.256+729.245+164.426+725.649+166.656+724.125C169.665+722.069+172.512+720.125+175.281+718.281C184.482+712.156+192.363+707.28+199.375+703.281L192.406+694ZM200+704.094C192.991+708.09+185.07+712.983+175.844+719.125C173.078+720.966+170.224+722.884+167.219+724.938C165.014+726.444+159.883+730.036+155+733.438L165.188+744.594C170.509+740.485+176.346+735.614+184.281+728.594C195.289+718.855+195.99+718.24+200.219+714.719C200.725+714.297+201.225+713.874+201.719+713.469C202.821+712.564+204.035+711.731+205.125+710.875L200+704.094ZM118.969+711.469C117.451+712.81+115.193+714.822+115.062+714.938C113.029+716.732+111.969+717.667+110.719+718.719C110.562+718.85+108.461+720.574+107.906+721.031L109.594+724.844L110.188+745.406C116.48+741.287+123.337+736.763+129.125+733L118.969+711.469ZM206.938+713.312C205.884+714.142+204.689+714.939+203.625+715.812C203.137+716.213+202.657+716.614+202.156+717.031C197.962+720.524+197.258+721.133+186.281+730.844C178.423+737.796+172.549+742.664+167.219+746.781L182.438+763.469C184.45+761.184+186.657+758.799+188.719+756.438C194.336+750.003+198.733+744.352+208+732.094C208.269+731.738+208.294+731.762+208.562+731.406C212.456+726.256+214.956+723.194+217.875+719.469L207.438+713.969L206.938+713.312ZM218.75+719.938C215.807+723.683+213.28+726.794+209.344+732C209.075+732.356+209.081+732.363+208.812+732.719C199.531+744.995+195.106+750.636+189.469+757.094C188.035+758.737+184.894+762.159+183.094+764.188L191.938+773.875C205.264+759.066+219.206+744.058+234.5+728.219L218.75+719.938ZM235.406+728.688C219.786+744.866+205.574+760.201+192+775.312L181.625+794.812L177.969+791.094C171.27+798.775+164.652+806.436+158.219+814.156C158.042+814.369+157.712+814.396+157.5+814.219C157.288+814.042+157.261+813.712+157.438+813.5C163.886+805.761+170.534+798.072+177.25+790.375L168+780.969C155.505+794.802+148.094+803.019+139.531+812.375L143.562+817.906L236.656+827.406L284.875+788L273.344+748.625L235.406+728.688ZM129.562+733.938C123.648+737.784+116.662+742.376+110.219+746.594L110.812+767.25C117.559+763.74+122.756+761.526+128.406+760.719C129.226+760.602+129.977+761.18+130.094+762C130.211+762.82+129.664+763.57+128.844+763.688C123.948+764.387+116.2+768.047+110.906+770.688L110.969+773.062L138.969+811.562C149.75+799.828+159.924+788.681+167.406+780.375L136.781+749.281L135.625+746.844C133.917+748.023+130.335+750.547+129.562+751.062C129.333+751.216+129.028+751.167+128.875+750.938C128.722+750.707+128.801+750.372+129.031+750.219C129.817+749.695+133.464+747.149+135.219+745.938L129.562+733.938Z" opacity="1" fill="url(#LinearGradient_10)"/>
<path d="M851.545+357.168L771.37+393.011L729.867+388.295L667.419+468.045L361.055+691.207L174.802+783.022L-9.48324+893.855L440.409+910.251L850.296+845.325L851.545+357.168Z" opacity="1" fill="#1b2765"/>
<path d="M887.072+165.508L376.9+185.399L879.383+191.135L887.072+165.508Z" opacity="1" fill="#fcf9f2"/>
<path d="M853.951+322.013L639.97+332.628L855.007+343.951L853.951+322.013Z" opacity="1" fill="#fcf9f2"/>
<path d="M789.875+410.375L764.344+417.469L757.844+434C764.589+436.633+770.679+438.912+776.812+441.25L789.875+410.375ZM756.406+437.719L754.156+443.406C758.574+446.699+764.453+450.827+770.906+455.188L775.25+444.938C769.151+442.613+763.107+440.334+756.406+437.719ZM752.656+447.281L748.75+457.188L723.906+460.031L711.938+476C713.802+477.429+714.761+478.111+716.812+479.688C717.326+480.082+717.331+480.106+717.844+480.5C732.298+491.609+741.556+498.558+749.938+504.719L750.875+502.594L769.312+458.969C762.913+454.654+757.043+450.522+752.656+447.281ZM709.531+479.188L708.562+480.5C711.462+482.089+714.493+483.78+720.281+487.375C718.403+485.935+717.476+485.247+715.406+483.656C714.893+483.262+714.888+483.269+714.375+482.875C712.33+481.304+711.39+480.612+709.531+479.188ZM706.188+483.688L703.406+487.375C712.534+493.253+721.499+499.765+731.812+507.688C735.152+509.487+738.362+511.241+742.219+513.219C742.674+513.452+743.154+513.681+743.656+513.938C744.707+514.475+744.522+514.422+745.469+514.906L747.625+510.031C744.625+507.899+741.376+505.538+738.906+503.938C719.667+491.471+711.026+486.266+706.188+483.688ZM693.5+500.562L660.062+545.156L704.031+609L739.625+528.156C724.229+518.717+708.853+509.544+693.5+500.562ZM733.156+518.562C735.574+519.962+738.497+521.722+740.844+523.062C741.072+523.193+741.424+523.399+741.656+523.531L741.812+523.219C739.005+521.71+737.803+521.026+733.156+518.562Z" opacity="1" fill="url(#LinearGradient_11)"/>
<path d="M846.068+685.957L811.351+618.995L823.047+531.72L829.627+479.837L849.258+532.844L850.006+504.761L820.993+448L833.157+430.623L867.23+483.793L854.803+550.402L846.068+685.957Z" opacity="1" fill="url(#LinearGradient_12)"/>
<path d="M763.512+407.408L747.035+446.283L728.383+453.68L763.512+407.408Z" opacity="1" fill="#2a3a8d"/>
<path d="M658.383+493.37L680.303+466.27L675.919+490.182L682.295+499.348L673.129+522.462L658.383+493.37Z" opacity="1" fill="#2a3a8d"/>
<path d="M820.469+381.812L808.125+393.719C809.601+394.403+810.948+395.034+812.031+395.594C813.042+396.116+815.4+397.414+817.438+398.5L820.469+381.812ZM805.031+396.688L795.781+405.625L793.719+411.156C796.468+413.41+799.276+415.811+802.688+419.094C803.659+420.028+806.88+423.142+807.25+423.5C809.013+425.204+810.366+426.479+811.656+427.656C815.167+430.856+817.967+433.304+821+436L829.438+424.781L815.312+410.281L816.688+402.625C814.783+401.615+812.001+400.093+810.188+399.156C808.79+398.434+805.036+396.69+805.031+396.688ZM792.25+415.156L777.5+455C781.011+456.093+823.265+472.059+823.265+472.059L815.094+443.906L818.594+439.219C815.474+436.448+812.586+433.922+808.969+430.625C807.644+429.417+806.257+428.103+804.469+426.375C804.092+426.011+800.869+422.895+799.906+421.969C796.968+419.142+794.634+417.163+792.25+415.156ZM773.656+465.406L769.156+477.531L765.562+486.406C775.019+493.598+785.928+499.42+806.531+509C806.556+509.012+806.538+509.02+806.562+509.031C811.603+511.375+815.643+513.363+819.688+515.344L821.33+501.967L823.125+487.344C822.394+487.006+821.928+486.748+821.188+486.406C816.707+484.341+794.257+474.086+791.125+472.656C789.769+472.037+787.662+471.177+784.188+469.75C783.603+469.51+775.934+466.348+773.656+465.406ZM786.838+463.98C786.838+463.98+821.826+477.896+824.156+478.969L824.562+475.719C823.29+475.424+822.678+475.176+821.312+474.875C819.009+474.367+786.838+463.98+786.838+463.98ZM764.781+488.375L748.25+529.25L746.188+535C756.595+546.35+768.491+557.637+788.844+576.125C789.113+576.369+790.771+577.878+791.25+578.312C793.778+580.609+794.419+581.319+796.531+583.25L811.156+556.125C803.585+550.983+798.056+547.084+792.844+542.938C792.56+542.712+768.75+518.438+768.75+518.438C768.75+518.438+792.028+527.819+792.125+527.875C792.123+527.874+792.161+527.908+792.156+527.906C798.067+530.602+804.19+532.695+814.688+535.812C815.046+535.919+816.141+536.26+817.062+536.531L819.438+517.406C815.265+515.355+810.983+513.292+805.719+510.844C805.694+510.832+805.712+510.824+805.688+510.812C785.27+501.318+774.274+495.514+764.781+488.375ZM784.106+528.558C789.006+532.139+808.867+549.637+808.867+549.637L815.688+547.75L816.094+544.562C816.005+544.536+815.996+544.527+815.906+544.5C815.664+544.428+808.628+537.321+808.628+537.321C808.628+537.321+786.967+529.493+784.106+528.558ZM743.156+543.438L738.062+557.625C755.873+567.955+774.043+579.316+792.125+591.375L792.594+590.531C790.017+588.172+789.08+587.159+785.844+584.219C785.366+583.784+783.738+582.307+783.469+582.062C764.695+565.008+753.123+554.048+743.156+543.438ZM736.688+561.469L725.594+592.5L726+593.219C735.266+596.828+745.022+600.743+759.125+606.625C759.922+606.957+759.922+606.98+760.719+607.312C769.675+611.047+773.562+612.462+779.469+614.844L790.25+594.906C772.346+582.96+754.33+571.719+736.688+561.469ZM736.359+598.925L784.407+798.102L842.901+792.738L857.716+767.195L825.276+749.314L857.576+747.92L769.61+694.353C769.61+694.353+857.02+727.927+855.413+732.209C854.762+733.944+843.048+715.604+829.344+693.174C826.3+688.192+855.867+716.777+855.867+716.777L784.828+618.519C778.986+616.161+775.201+614.774+766.421+611.113C765.625+610.78+765.624+610.789+764.828+610.456C752.693+605.396+744.711+602.234+736.359+598.925Z" opacity="1" fill="url(#LinearGradient_13)"/>
<path d="M60.2668+719.535C60.2668+719.535+69.443+708.407+80.2016+720.406" opacity="1" fill="#101330"/>
<path d="M346.406+711.469L317.406+724.438C319.038+728.162+320.849+732.52+323.406+738.844C323.502+739.081+323.498+739.106+323.594+739.344C325.268+743.485+326.366+745.821+327.719+749L343.438+744.281L354.844+734.562C352.655+731.968+349.824+728.408+349.406+727.781C349.087+727.303+348.706+726.67+348.344+726.062L339.844+728.156L346.406+711.469ZM371.5+720.406L350.906+725.438C352.097+726.129+354.112+728.693+357.031+732.719L371.5+720.406ZM314.656+725.656L306.375+729.344C309.851+734.38+314.651+741.231+314.688+741.281C317.601+745.367+319.403+748+321.406+750.906L324.844+749.875C323.518+746.748+322.442+744.498+320.812+740.469C320.716+740.231+320.721+740.207+320.625+739.969C318.075+733.664+316.277+729.351+314.656+725.656ZM305.469+729.75L290.312+736.531L276.719+745.062C283.414+748.339+291.044+752.257+300.406+757.25L320.312+751.25C316.826+746.135+313.804+741.782+313.781+741.75C309.559+735.829+307.676+733.023+305.469+729.75ZM275.719+745.688L250.312+761.594L287.906+761L299.031+757.656C289.909+752.801+282.348+748.919+275.719+745.688Z" opacity="1" fill="url(#LinearGradient_14)"/>
<path d="M61.375+527.812L40.9688+541.406C44.1921+543.538+48.0117+546.252+52.4375+549.5L61.375+527.812ZM38.3125+543.188L16.5312+557.688L-2.5+607.312L-4+612.062C8.83598+624.264+21.5088+637.128+34.5625+651.406L57.9688+608.656L59.3125+583.531L32.8125+624.969L40.9688+577.406L51.2812+552.344C46.1741+548.586+41.865+545.501+38.3125+543.188ZM-5+615.25L-19.1875+660.406C-0.828923+678.199+17.4276+697.346+37.375+719.469L26.7188+665.719L33.0312+654.219C20.1298+640.081+7.63312+627.307-5+615.25ZM-20.875+665.781L-35.7812+713.281L-35.375+743.5C-35.3397+743.521-35.2961+743.554-35.2812+743.562C-35.3566+742.695-34.8426+741.992-34.0625+741.781C-33.6938+741.682-33.2933+741.649-32.75+741.688C-31.6229+741.766-30.1246+742.222-28.625+742.688C-28.6101+742.671-28.6096+742.674-28.5938+742.656C-27.6491+742.291-27.6404+742.291-27.375+742.375C-27.2009+742.418-27.2063+742.407-27.125+742.438C-27.0114+742.485-27.0294+742.501-26.9688+742.531C-26.9096+742.561-26.8277+742.58-26.75+742.625C-26.6237+742.698-26.4457+742.829-26.2188+742.969C-25.896+743.168-23.988+744.401-23.4375+744.75C-17.4512+747.449-9.84233+751.794-0.25+758C1.67797+759.247+3.6574+760.532+5.71875+761.906C8.16835+763.539+11.1114+765.594+15.1562+768.375C15.3552+768.485+16.6172+769.197+16.6562+769.219C24.7615+773.71+30.7763+777.161+36.2188+780.406L38.4688+767.281C33.4444+763.604+28.2038+759.586+23.0312+755.969C21.8487+755.142+20.2256+754.174+17.7188+752.781C17.6169+752.725+12.2954+749.816+10.6875+748.906C4.22244+745.249+0.10362+742.421-2.40625+739.531C-2.84079+739.031-3.21005+738.528-3.53125+738.031C-3.76902+737.63-3.79394+737.643-3.71875+736.75C-3.23707+735.99-3.21784+735.989-2.78125+735.812C-2.30492+735.712-2.29923+735.702-2.15625+735.719C-1.97504+735.74-1.98426+735.733-1.90625+735.75C-1.83192+735.766-1.76061+735.783-1.65625+735.812C-1.49252+735.859-1.26075+735.94-0.96875+736.031C-0.461298+736.19+4.05228+737.677+4.25+737.75C5.35342+738.157+8.29892+739.121+8.3125+739.125C11.0977+740.047+12.3391+740.479+13.875+741.094C17.1208+742.393+25.5235+746.239+25.75+746.344C32.8042+749.591+36.9776+751.31+40.9375+752.719L42.3438+744.531L39.2812+729.031C17.7659+704.959-1.5114+684.64-20.875+665.781ZM3.40625+740.625C5.63556+742.336+8.35983+744.148+12.1875+746.312C13.7755+747.211+19.0397+750.091+19.1562+750.156C21.7486+751.596+23.4592+752.598+24.75+753.5C29.5408+756.85+34.3891+760.583+39.0312+763.969L40.4375+755.719C36.241+754.253+31.9169+752.476+24.5+749.062C24.2735+748.958+24.2576+748.948+24.0312+748.844C18.6374+746.361+15.9344+745.181+12.75+743.906C11.29+743.322+7.35733+741.973+7.34375+741.969C5.38971+741.322+4.48426+741.02+3.40625+740.625ZM-35.3438+747.344L-35.125+763.906C-33.3046+764.127-31.4268+764.422-29.25+765.094C-27.4721+765.642-25.6397+766.296-23.375+767.188C-22.5346+767.518-19.6788+768.656-19.125+768.875C-17.6286+769.466-16.5542+769.85-15.6562+770.125C-4.86897+773.428+6.16302+777.29+20.7188+782.594C17.2587+780.409+14.3717+778.62+9.6875+775.562C9.22694+775.262+9.24177+775.238+8.78125+774.938C-3.2239+767.102-9.24561+763.41-16.0938+759.25C-18.9599+757.552-23.015+755.247-25.625+753.594C-30.6537+750.408-33.2786+748.702-35.3438+747.344ZM-35.0312+771.438L-33.75+866.156L22.625+860.031L34.25+792.062C33.7366+791.636+33.4165+791.458+32.875+791C32.7627+790.905+32.1687+790.405+31.875+790.156C27.6757+788.685+24.3361+787.509+21.4062+786.625C18.1925+785.655+9.8636+783.038+9.84375+783.031C8.91203+782.736+8.81255+782.735+7.96875+782.469C-1.47992+779.827-15.6733+775.926-17.0938+775.469C-17.1645+775.446-17.267+775.401-17.3438+775.375C-19.5994+774.867-21.1162+774.435-24.8438+773.688C-26.5726+773.341-26.9259+773.279-27.6875+773.125C-30.6547+772.524-32.6571+771.993-35.0312+771.438Z" opacity="0.355993" fill="url(#LinearGradient_15)"/>
</g>
<g id="Layer 3" vectornator:layerName="Layer 3">
<path d="M681.718-34.2187L682.337+224.918L683.203+386.862L693.596+578.25L721.308+615.488L726.504+569.59L709.68+331.143L703.988-87.7123L681.718-34.2187Z" opacity="1" fill="#0a0c1c"/>
<path d="M267.991+709.264L550.537+741.792L748.417+728.083L589.956+628.817L582.282+612.19L285.114+698.313L267.991+709.264Z" opacity="1" fill="#5e88aa"/>
<path d="M582.281+612.188L378.531+671.25L382.875+718.688L382.125+722.375L550.531+741.781L748.406+728.094L589.969+628.812L582.281+612.188Z" opacity="0.180531" fill="#e2f3dc"/>
<g opacity="0.322124">
<path d="M639.531+634.094L639.531+672.5L641.156+672.219L641.156+634.094L639.531+634.094Z" opacity="0.619643" fill="url(#LinearGradient_16)"/>
<path d="M595.469+609.25L595.469+680.312L597.094+680L597.094+609.25L595.469+609.25Z" opacity="0.619643" fill="url(#LinearGradient_17)"/>
<path d="M557.375+616.875L557.375+687.062L559.031+686.75L559.031+616.875L557.375+616.875Z" opacity="0.619643" fill="url(#LinearGradient_18)"/>
<path d="M520.312+630.844L520.312+693.625L521.969+693.312L521.969+630.844L520.312+630.844Z" opacity="0.619643" fill="url(#LinearGradient_19)"/>
<path d="M489.031+641.719L489.031+699.156L490.656+698.875L490.656+641.719L489.031+641.719Z" opacity="0.619643" fill="url(#LinearGradient_20)"/>
<path d="M460.906+648.188L459.25+648.281L460.688+704.188L462.312+703.875L460.906+648.188Z" opacity="0.619643" fill="url(#LinearGradient_21)"/>
<path d="M434.188+654.562L432.562+654.656L434.156+708.875L435.781+708.594L434.188+654.562Z" opacity="0.619643" fill="url(#LinearGradient_22)"/>
<path d="M406.594+663.094L404.969+663.219L407.062+713.656L408.688+713.375L406.594+663.094Z" opacity="0.619643" fill="url(#LinearGradient_23)"/>
</g>
<path d="M853.277+824.849L703.05+735.468L651.773+743.999L667.057+814.952L853.277+824.849Z" opacity="1" fill="#0a0c1c"/>
<path d="M379.848+719.269L382.531+718.092L385.537+754.217L382.189+754.555L379.848+719.269Z" opacity="1" fill="#b2eee4"/>
<path d="M685.885+734.979L691.428+663.352L382.434+718.066L569.918+742.653L685.885+734.979Z" opacity="0.619643" fill="#e2f3dc"/>
<path d="M382.459+718.054L385.452+754.565L582.282+744.785L382.459+718.054Z" opacity="1" fill="#414e7b"/>
<g opacity="1">
<path d="M641.156+672.312C640.714+672.391+639.985+672.513+639.531+672.594L639.531+736.094L641.156+736.094L641.156+672.312Z" opacity="0.619643" fill="#e2f3dc"/>
<path d="M597.094+680.125C596.407+680.247+596.162+680.284+595.469+680.406L595.469+740.25L597.094+740.25L597.094+680.125Z" opacity="0.619643" fill="#e2f3dc"/>
<path d="M559.031+686.844C558.223+686.987+558.185+687.013+557.375+687.156L557.375+744.438L559.031+744.438L559.031+686.844Z" opacity="0.619643" fill="#e2f3dc"/>
<path d="M521.969+693.406C521.154+693.551+521.125+693.575+520.312+693.719L520.312+747L521.969+747L521.969+693.406Z" opacity="0.619643" fill="#e2f3dc"/>
<path d="M490.656+698.969C489.926+699.098+489.756+699.122+489.031+699.25L489.031+750.281L490.656+750.281L490.656+698.969Z" opacity="0.619643" fill="#e2f3dc"/>
<path d="M462.312+703.969C461.701+704.077+461.291+704.143+460.688+704.25L461.938+752.531L463.562+752.438L462.312+703.969Z" opacity="0.619643" fill="#e2f3dc"/>
<path d="M435.781+708.656C435.328+708.737+434.598+708.891+434.156+708.969L435.469+753.625L437.094+753.531L435.781+708.656Z" opacity="0.619643" fill="#e2f3dc"/>
<path d="M408.688+713.469C408.449+713.511+407.287+713.71+407.062+713.75L408.875+757.094L410.5+756.969L409.344+729.125L408.688+713.469Z" opacity="0.619643" fill="#e2f3dc"/>
</g>
<path stroke="#000000" stroke-width="1" d="M582.878+629.737" fill="none" stroke-linecap="butt" opacity="1" stroke-linejoin="round"/>
<path d="M533.316+300.003L748.033+609.076L787.917+666.486L786.591+744.793L690.304+687.274L592.589+628.851L533.316+300.003Z" opacity="1" fill="#6184a3"/>
<path d="M585.604+629.976L685.046+690.228L690.385+687.357L592.744+627.109L585.604+629.976Z" opacity="1" fill="#414e7b"/>
<path d="M785.831+744.272L785.538+779.905L704.431+734.091L691.081+732.836L690.351+687.326L785.831+744.272Z" opacity="1" fill="#414e7b"/>
<path d="M47+653.625C45.2812+653.756+43.4704+654.077+41.5625+654.656C37.4353+655.91+34.0891+658.588+31.3125+662.281C33.3829+662.289+35.6515+662.209+37.6562+662.25C47.4226+662.448+56.4157+663.055+65.0625+664.125C60.6772+657.033+54.82+653.028+47+653.625ZM37.5+667.25C34.5634+667.19+31.2771+667.271+28.1875+667.281C24.8482+673.938+22.8932+682.896+21.7812+693.062C32.0747+689.01+57.2188+685.188+57.2188+685.188C57.2188+685.188+31.9872+694.195+21.25+698.594C21.0891+700.794+21.0544+703.139+20.9688+705.438C28.0074+703.005+35.7012+701.477+44.125+700.875C47.2394+700.652+50.3687+700.533+53.5938+700.531C60.049+700.526+67.2187+701.101+74.9375+701.938C74.2005+694.473+73.1648+687.457+71.6562+681.312C63.5824+678.98+47.4688+678.156+47.4688+678.156C47.4688+678.156+64.7073+674.56+70.0312+675.844C69.3592+673.727+68.7407+671.513+67.9375+669.656C58.3682+668.311+48.4714+667.474+37.5+667.25ZM53.6562+705.562C50.5253+705.565+47.4766+705.661+44.4688+705.875C35.6797+706.503+27.8508+708.237+20.75+710.938C20.6281+720.768+21.2249+731.351+22.0938+742.094C24.3861+741.272+45.625+739.938+45.625+739.938C45.625+739.938+24.8938+746.328+22.5625+747.281C23.4149+756.553+24.6015+765.837+25.875+775C30.0059+773.227+56.5+774.125+56.5+774.125C56.5+774.125+38.766+778.096+27.0312+783.219C33.1655+824.029+41.6562+858.75+41.6562+858.75L64.7188+854.281C64.7188+854.281+69.6388+824.686+72.9688+788.344C72.9514+788.343+72.9237+788.344+72.9062+788.344C66.6334+788.198+52.4375+786+52.4375+786C52.4375+786+66.3144+780.218+73.0625+780.375C73.1607+780.377+73.4453+780.403+73.5625+780.406C74.2158+772.475+74.9158+764.601+75.3125+756.406C64.0167+754.857+39.9062+758.25+39.9062+758.25C39.9062+758.25+58.3693+747.448+67.6875+747.688C70.2808+747.754+72.9417+747.993+75.6562+748.344C75.9166+740.802+75.9862+733.356+75.9062+726.062C60.2566+723.789+33.7812+713.125+33.7812+713.125C33.7812+713.125+65.6882+711.93+75.6562+714.125C75.5414+711.827+75.5743+709.349+75.4062+707.125C67.5922+706.27+60.0895+705.559+53.6562+705.562Z" opacity="1" fill="#101330"/>
<path d="M657.171+759.343L681.739+758.459L682.288+794.531L654.355+803.541L657.171+759.343Z" opacity="1" fill="url(#LinearGradient_24)"/>
<path d="M685.051+690.219L685.311+733.209L691.212+732.568L690.357+687.332L685.051+690.219Z" opacity="1" fill="#b2eee4"/>
<path d="M849.468+815.655L704.745+728.564L704.501+741.143L848.23+825.091L849.468+815.655Z" opacity="1" fill="#6184a3"/>
<path d="M704.958+728.621L704.753+741.294L75.8471+781.899L152.335+831.909L142.846+833.757L52.996+773.314L704.958+728.621Z" opacity="1" fill="#b2eee4"/>
<path d="M664.451+797.6L664.434+743.724L70.8861+778.481L67.3534+778.688L309.7+826.179L640.139+813.517L664.451+797.6Z" opacity="1" fill="#6db4c8"/>
<path d="M664.438+743.719L571.656+749.156C468.121+774.717+379.937+798.281+295.5+823.406L309.688+826.188L640.125+813.531L664.438+797.594L664.438+743.719Z" opacity="1" fill="url(#LinearGradient_25)"/>
<path d="M149.359+833.12C149.359+833.12+319.102+832.114+311.097+827.522C303.091+822.929+68.3444+778.783+68.3444+778.783L149.359+833.12Z" opacity="1" fill="url(#LinearGradient_26)"/>
<path d="M-13.3464+846.125L-11.3832+814.76L617.853+779.146L618.426+816.433L-13.3464+846.125Z" opacity="0.619643" fill="#e2f3dc"/>
<path d="M-6.94281+835.136L645.206+807.808L638.517+819.499L109.039+840.573L111.908+965.352L-17.3518+995.876L-6.94281+835.136Z" opacity="1" fill="#6184a3"/>
<path d="M103.772+838.405L270.604+912.794L104.001+975.889L103.772+838.405Z" opacity="1" fill="#1d2240"/>
<path d="M628.934+816.196L103.444+838.253L273.103+917.475L604.9+844.968L628.934+816.196Z" opacity="1" fill="#0a0c1c"/>
<path d="M724.008+804.303L681.64+758.704L682.023+796.744L724.008+804.303Z" opacity="1" fill="#414e7b"/>
<path d="M352.267+101.908C352.267+80.0787+369.963+62.3829+391.792+62.3829C413.621+62.3829+431.317+80.0787+431.317+101.908C431.317+123.737+413.621+141.432+391.792+141.432C369.963+141.432+352.267+123.737+352.267+101.908Z" opacity="1" fill="#fcf9f2"/>
<path d="M322.829+688.12L452.139+651.134L86.8812+547.745L322.829+688.12Z" opacity="1" fill="url(#LinearGradient_27)"/>
<path d="M91.6123+549.133L534.236+314.414L584.773+611.354L453.601+651.865L91.6123+549.133Z" opacity="1" fill="#6db4c8"/>
<path d="M558.938+459.406C533.495+471.724+507.239+485.033+479.344+499.844C440.636+520.396+409.424+537.76+341.562+576.062C324.006+585.972+306.356+595.559+288.531+605.031L453.594+651.875L584.781+611.344L558.938+459.406Z" opacity="1" fill="url(#LinearGradient_28)"/>
<path d="M409.164+589.121C407.191+588.502+407.744+591.182+407.717+592.669C407.694+593.986+408.049+595.924+407.782+597.231C407.209+600.026+406.372+601.838+406.063+603.428C405.754+605.018+405.398+606.005+405.459+606.906C405.504+607.552+405.59+608.188+405.747+608.754C405.867+609.191+405.905+609.948+406.525+609.98C406.878+609.999+407.897+609.903+408.099+609.685C409.901+607.743+408.776+608.192+409.435+606.171C410.214+603.779+410.65+599.724+410.744+598.442C410.839+597.16+411.484+595.495+411.342+594.336C411.074+592.143+411.707+589.918+409.164+589.121Z" opacity="1" fill="#0a0c1c"/>
<path d="M430.615+607.591C430.615+607.591+433.099+614.285+432.866+616.99C432.633+619.695+432.473+633.229+432.473+633.229L435.719+655.537L430.898+656.732L425.725+631.144L421.655+615.767L416.696+632.291C416.696+632.291+417.906+636.286+418.371+639.142C418.835+641.998+421.21+659.49+421.21+659.49L416.74+660.173L410.794+631.808L414.295+610.396L430.615+607.591Z" opacity="1" fill="#0a0c1c"/>
<path d="M425.13+609.281C422.722+609.448+420.648+610.878+418.388+611.356C416.241+611.811+414.53+611.62+413.816+611.472C413.284+611.361+413.41+609.34+413.273+608.877C411.803+603.876+409.761+599.12+408.532+593.986C408.117+592.253+407.615+591.94+407.854+590.097C408.246+587.062+412.558+587.146+413.886+585.329C414.336+584.715+413.727+582.794+413.466+581.23C413.205+579.666+414.814+576.274+417.586+578.985C418.964+580.333+417.073+579.268+419.071+583.458C419.471+584.296+425.865+584.249+426.321+585.202C426.911+586.435+427.309+586.488+427.905+588.042C428.27+588.994+428.271+596.769+429.321+602.521C429.472+603.348+430.221+603.908+430.497+604.465C431.328+606.141+431.082+607.443+431.082+607.443C430.935+607.74+428.429+609.051+425.13+609.281Z" opacity="1" fill="#0a0c1c"/>
<path d="M425.165+585.048C426.922+584.42+429.235+586.261+430.266+588.473C430.976+589.999+431.671+592.521+432.254+594.1C432.855+595.724+433.678+597.726+434.139+599.388C434.52+600.76+434.911+602.383+435.061+603.798C435.107+604.238+435.267+604.905+434.858+605.248C434.462+605.58+433.827+605.276+433.439+605.158C431.42+604.542+430.707+603.43+429.735+601.641C428.926+600.152+429.205+598.263+428.954+596.647C428.905+596.331+427.742+594.386+427.552+594.104C426.491+592.528+425.992+592.166+425.304+590.268C424.972+589.351+425.085+588.506+425.036+587.555" opacity="1" fill="#0a0c1c"/>
<path d="M411.058+577.983C411.399+579.016+411.423+579.648+411.752+580.396C412.01+580.982+412.707+581.899+412.998+582.291C414.333+584.095+415.102+583.935+417.519+582.693C419.162+581.849+417.878+573.922+417.878+573.922C413.803+570.878+409.225+572.423+411.058+577.983Z" opacity="1" fill="#414e7b"/>
<path d="M404.699+590.99L418.131+585.594L425.761+604.591L412.329+609.986L407.622+598.267L404.699+590.99Z" opacity="0.596429" fill="#b2eee4"/>
<path d="M418.054+579.586C417.034+579.135+418.211+577.46+416.243+577.621C415.221+577.704+415.882+575.604+415.719+575.686C414.607+576.247+412.636+576.998+411.443+577.243C408.986+577.749+409.18+574.519+410.038+573.217C411.385+571.172+413.961+571.078+415.96+571.465C416.75+571.618+417.693+572.209+417.841+573.132C418.005+574.145+418.789+573.076+418.787+575.66C418.786+576.281+418.666+579.857+418.054+579.586Z" opacity="1" fill="#b2eee4"/>
<path d="M421.302+592.155C421.749+592.354+420.297+591.879+420.182+591.802C419.878+591.597+419.338+591.449+418.678+591.308C418.179+591.202+418.467+591.746+418.687+591.878C418.912+592.013+420.327+592.516+420.377+592.774C420.417+592.979+418.518+592.071+418.728+592.794C418.804+593.053+420.456+593.479+421.017+593.88C421.577+594.282+419.141+593.329+419.409+593.988C419.561+594.363+421.147+594.604+421.338+594.986C421.528+595.367+420.731+595.101+420.818+595.333C420.998+595.814+421.65+596.074+422.392+596.389C423.216+596.74+424.17+596.845+424.397+596.908C424.877+597.041+425.893+598.3+426.249+598.632C427.932+600.197+428.539+601.733+430.313+603.204C431.24+603.972+432.386+605.034+433.654+604.983C433.788+604.977+434.653+605.044+434.727+604.953C434.896+604.745+434.256+603.312+434.217+602.955C433.886+599.947+432.728+599.465+428.657+597.232C427.626+596.666+426.637+595.803+425.578+595.234C424.379+594.59+423.628+593.488+422.417+592.855C421.993+592.633+420.496+591.796+421.302+592.155Z" opacity="1" fill="#1c2a4d"/>
<path d="M421.302+592.155C421.749+592.354+420.297+591.879+420.182+591.802C419.878+591.597+419.338+591.449+418.678+591.308C418.179+591.202+418.467+591.746+418.687+591.878C418.912+592.013+420.327+592.516+420.377+592.774C420.417+592.979+418.518+592.071+418.728+592.794C418.804+593.053+420.456+593.479+421.017+593.88C421.577+594.282+419.141+593.329+419.409+593.988C419.561+594.363+421.147+594.604+421.338+594.986C421.528+595.367+420.731+595.101+420.818+595.333C420.998+595.814+421.65+596.074+422.392+596.389C423.216+596.74+424.17+596.845+424.397+596.908C424.877+597.041+425.893+598.3+426.249+598.632C427.932+600.197+428.539+601.733+430.313+603.204C431.24+603.972+432.386+605.034+433.654+604.983C433.788+604.977+434.653+605.044+434.727+604.953C434.896+604.745+434.256+603.312+434.217+602.955C433.886+599.947+432.728+599.465+428.657+597.232C427.626+596.666+426.637+595.803+425.578+595.234C424.379+594.59+423.628+593.488+422.417+592.855C421.993+592.633+420.496+591.796+421.302+592.155Z" opacity="1" fill="#1c2a4d"/>
<path d="M405.782+607.073C405.785+606.301+406.002+604.973+406.341+603.184C406.46+602.551+406.595+601.861+406.741+601.116C407.13+599.135+406.574+594.786+406.687+596.202C406.8+597.617+406.466+594.026+406.853+593.857C407.364+593.634+407.106+595.236+407.252+595.318C407.716+595.581+407.469+593.529+407.963+594.132C408.32+594.568+407.813+595.918+407.926+595.973C408.149+596.081+408.672+594.431+408.858+594.896C409.138+595.598+408.544+595.783+408.741+597.254C408.813+597.794+409.042+597.543+409.044+598.756C409.045+599.969+408.827+599.349+408.806+600.735C408.796+601.464+408.895+601.754+408.903+602.752C408.915+604.335+409.37+606.061+409.05+607.624C408.805+608.819+408.486+609.043+407.473+609.616C407.136+609.806+406.444+610.351+406.145+609.875C405.983+609.616+405.777+608.405+405.782+607.073Z" opacity="1" fill="#1c2a4d"/>
<path d="M408.535+592.694L416.386+589.594L416.728+590.461L408.877+593.56L408.535+592.694Z" opacity="0.596429" fill="#b2eee4"/>
<path d="M409.144+594.324L416.995+591.225L417.337+592.091L409.486+595.191L409.144+594.324Z" opacity="0.596429" fill="#b2eee4"/>
<path d="M410.79+598.232L412.346+597.558L415.455+604.739L413.9+605.412L410.79+598.232Z" opacity="0.596429" fill="#b2eee4"/>
<path d="M415.315+598.494C415.315+596.984+416.538+595.761+418.048+595.761C419.557+595.761+420.781+596.984+420.781+598.494C420.781+600.003+419.557+601.227+418.048+601.227C416.538+601.227+415.315+600.003+415.315+598.494Z" opacity="0.596429" fill="#b2eee4"/>
<path d="M414.175+596.506C414.175+595.465+415.019+594.621+416.06+594.621C417.101+594.621+417.945+595.465+417.945+596.506C417.945+597.547+417.101+598.391+416.06+598.391C415.019+598.391+414.175+597.547+414.175+596.506Z" opacity="0.596429" fill="#b2eee4"/>
<path d="M277.19+651.772L320.698+690.038L581.826+614.258L583.571+598.005L574.932+564.755L277.19+651.772Z" opacity="0.619643" fill="#e2f3dc"/>
<path d="M338.803+687.193L583.922+616.682L586.214+607.625L330.994+683.104L338.803+687.193Z" opacity="1" fill="#b2eee4"/>
<path d="M586.219+607.625L573.125+611.5C573.342+612.628+573.559+613.679+573.781+614.969C574.06+616.583+574.155+617.405+574.469+619.406L583.906+616.688L586.219+607.625ZM335.309+681.861L331+683.094L338.812+687.188L342.375+686.156C341.528+685.395+335.309+681.861+335.309+681.861Z" opacity="1" fill="#6db4c8"/>
<path d="M585.552+629.916L523.634+305.601L533.606+299.808L535.593+310.762L592.997+627.147L585.552+629.916Z" opacity="1" fill="#b2eee4"/>
<path d="M60.0933+551.519L533.583+299.878L532.66+327.635L98.3532+551.022L339.711+686.876L267.932+709.277L60.0933+551.519Z" opacity="1" fill="#b2eee4"/>
<path d="M481.934+600.821L487.235+600.821L487.235+618.49L481.934+618.49L481.934+600.821Z" opacity="0.619643" fill="#e2f3dc"/>
<path d="M495.48+594.048L499.014+594.048L499.014+604.944L495.48+604.944L495.48+594.048Z" opacity="0.619643" fill="#e2f3dc"/>
<path d="M535.53+592.281L542.009+592.281L542.009+610.245L535.53+610.245L535.53+592.281Z" opacity="0.619643" fill="#e2f3dc"/>
<path d="M516.683+587.864L523.751+587.864L523.751+609.656L516.683+609.656L516.683+587.864Z" opacity="0.619643" fill="#e2f3dc"/>
<path d="M564.979+577.557L568.807+577.557L568.807+588.158L564.979+588.158L564.979+577.557Z" opacity="0.619643" fill="#e2f3dc"/>
<path d="M373.556+640.214L378.095+640.214L378.095+656.481L373.556+656.481L373.556+640.214Z" opacity="1" fill="#e2f3dc"/>
<path d="M339.51+642.106L346.319+642.106L346.319+668.208L339.51+668.208L339.51+642.106Z" opacity="1" fill="#e2f3dc"/>
<path d="M312.651+648.915L319.839+648.915L319.839+661.399L312.651+661.399L312.651+648.915Z" opacity="1" fill="#e2f3dc"/>
<path d="M358.046+634.162L361.829+634.162L361.829+642.862L358.046+642.862L358.046+634.162Z" opacity="1" fill="#e2f3dc"/>
<path d="M395.497+623.57L400.793+623.57L400.793+642.484L395.497+642.484L395.497+623.57Z" opacity="1" fill="#e2f3dc"/>
<path d="M387.931+654.968L390.579+654.968L390.579+661.399L387.931+661.399L387.931+654.968Z" opacity="1" fill="#e2f3dc"/>
<path d="M358.046+658.372L361.451+658.372L361.451+668.208L358.046+668.208L358.046+658.372Z" opacity="1" fill="#e2f3dc"/>
<path d="M409.872+619.408L413.655+619.408L413.655+626.218L409.872+626.218L409.872+619.408Z" opacity="1" fill="#e2f3dc"/>
<path d="M431.629+622.452L434.746+622.452L434.746+633.789L431.629+633.789L431.629+622.452Z" opacity="1" fill="#e2f3dc"/>
<path d="M416.081+638.744L420.811+638.744L420.811+650.589L416.081+650.589L416.081+638.744Z" opacity="1" fill="#e2f3dc"/>
<path d="M455.887+606.355L458.898+606.355L458.898+618.682L455.887+618.682L455.887+606.355Z" opacity="1" fill="#e2f3dc"/>
<path d="M444.675+623.823L451.699+623.823L451.699+642.249L444.675+642.249L444.675+623.823Z" opacity="1" fill="#e2f3dc"/>
<path d="M463.499+625.511L465.687+625.511L465.687+633.081L463.499+633.081L463.499+625.511Z" opacity="1" fill="#e2f3dc"/>
<path d="M478.063+623.407L484.901+623.407L484.901+631.144L478.063+631.144L478.063+623.407Z" opacity="1" fill="#e2f3dc"/>
<path d="M504.002+608.521L510.826+608.521L510.826+622.591L504.002+622.591L504.002+608.521Z" opacity="1" fill="#e2f3dc"/>
<path d="M547.745+576.876L552.18+576.876L552.18+588.355L547.745+588.355L547.745+576.876Z" opacity="1" fill="#e2f3dc"/>
<path d="M565.87+597.494L570.294+597.494L570.294+605.971L565.87+605.971L565.87+597.494Z" opacity="1" fill="#e2f3dc"/>
<path d="M571.522+583.11L574.75+583.11L574.75+591.432L571.522+591.432L571.522+583.11Z" opacity="1" fill="#e2f3dc"/>
<path d="M548.588+596.972L551.116+596.972L551.116+607.58L548.588+607.58L548.588+596.972Z" opacity="1" fill="#e2f3dc"/>
<path d="M534.181+582.088L537.018+582.088L537.018+586.727L534.181+586.727L534.181+582.088Z" opacity="1" fill="#e2f3dc"/>
<path d="M517.833+616.342L521.916+616.342L521.916+621.782L517.833+621.782L517.833+616.342Z" opacity="1" fill="#e2f3dc"/>
<path d="M328.467+662.522L332.135+662.522L332.135+671.948L328.467+671.948L328.467+662.522Z" opacity="0.619643" fill="#e2f3dc"/>
<path d="M295.997+652.216L300.26+652.216L300.26+658.383L295.997+658.383L295.997+652.216Z" opacity="0.619643" fill="#e2f3dc"/>
<path d="M328.866+643.736L331.411+643.736L331.411+648.242L328.866+648.242L328.866+643.736Z" opacity="0.619643" fill="#e2f3dc"/>
<path d="M16.3028+684.272C16.3028+684.272+19+672.927+31.7421+679.839" opacity="1" fill="#414e7b"/>
<path d="M54.2566+695.617C54.2566+695.617+64.8235+682.721+80.7821+696.455" opacity="1" fill="#1c2a4d"/>
<path d="M611.189+458.078L619.87+510.68L631.588+522.652L626.019+482.13L611.189+458.078Z" opacity="1" fill="#466885"/>
<path d="M627.985+588.764L634.478+626.165L647.327+635.907L641.682+599.129L627.985+588.764Z" opacity="1" fill="#6db4c8"/>
<path d="M688.545+580.312L690.705+596.152L698.89+603.569L697.664+590.085L688.545+580.312Z" opacity="1" fill="#466885"/>
<path d="M723.137+593.584L724.754+609.809L731.346+617.049L729.918+603.625L723.137+593.584Z" opacity="1" fill="#466885"/>
<path d="M725.942+668.18L726.253+685.752L734.435+691.571L733.869+675.423L725.942+668.18Z" opacity="1" fill="#466885"/>
<path d="M745.781+645.765L745.924+662.307L753.485+670.602L753.882+654.98L745.781+645.765Z" opacity="1" fill="#466885"/>
<path d="M649.286+501.326L653.601+526.32L663.612+537.926L659.469+515.483L649.286+501.326Z" opacity="1" fill="#414e7b"/>
<path d="M673.039+616.241L675.37+635.548L684.141+643.447L681.993+624.744L673.039+616.241Z" opacity="1" fill="#466885"/>
<path d="M591.276+538.745L596.268+562.579L606.627+571.262L600.828+546.938L591.276+538.745Z" opacity="1" fill="#466885"/>
<path d="M695.562-51.125L688.094-49.5L681.719-34.2188L681.875+25.7812C684.351+26.1759+686.639+26.49+688.969+26.75L695.562-51.125ZM681.875+30.1875L681.906+45.125C682.172+45.2824+682.311+45.3279+682.594+45.5C682.777+45.6116+682.786+45.6074+682.969+45.7188C685.175+47.0631+686.213+47.5473+687.438+48.125C688.265+48.5287+689.005+48.8658+689.812+49.25C689.898+49.2816+689.941+49.2796+690.031+49.3125L688.844+32C687.098+31.583+685.25+31.0548+683.219+30.375C682.781+30.3045+682.317+30.2563+681.875+30.1875ZM681.938+56.3125L682.031+94.0312L692.5+85.6562L690.812+61.0625C689.259+60.3172+687.716+59.5626+686+58.625C684.831+57.9868+683.539+57.2345+681.938+56.3125ZM682.062+109.625L682.125+134.688C682.943+134.478+682.865+134.46+683.812+134.219C685.828+133.706+689.064+133.071+691.062+132.594L690.188+117.75L682.062+109.625ZM691.344+137.469C688.298+138.329+685.23+139.109+682.125+139.875L682.125+145.188C685.268+144.37+688.418+143.555+691.656+142.812L691.344+137.469ZM691.812+145.812C688.524+146.572+685.345+147.444+682.156+148.281L682.188+159.219C685.457+159.965+689.024+160.869+692.75+161.875L691.812+145.812ZM682.188+162.312L682.219+177.938C683.507+178.862+688.937+182.727+688.969+182.75C688.98+182.756+689.017+182.773+689.031+182.781C689.151+182.855+689.141+182.854+689.125+182.844C689.125+182.844+689.219+182.906+689.219+182.906C689.262+182.935+689.27+182.971+689.312+183C689.332+183.018+689.324+183.016+689.375+183.062C691.677+184.606+693.183+185.718+695.031+187L693.25+170.469L692.938+165.031C689.128+163.994+685.491+163.076+682.188+162.312ZM682.25+184.625L682.281+200.312L692.781+193.625C690.886+191.931+689.59+190.839+687.344+188.812C685.135+187.079+684.182+186.165+682.25+184.625ZM682.312+211.312L682.312+218.375L691.719+214L682.312+211.312ZM682.406+238.344L682.594+270.531C686.38+270.042+689.931+269.56+693.812+269.125L694.031+252.219L682.406+238.344ZM693.719+274.094C689.883+274.551+686.203+275.088+682.625+275.594L682.625+277.719C684.459+277.497+684.405+277.515+687.312+277.156C690.155+276.806+691.575+276.658+693.688+276.406L693.719+274.094ZM693.625+282.406C692.854+282.47+691.155+282.611+690.594+282.656C688.732+282.808+686.653+283.021+684.031+283.312C683.836+283.334+683.103+283.418+682.656+283.469L682.75+297.969C686.148+297.788+691.935+297.484+693.406+297.406L693.625+282.406ZM693.375+300.438C691.868+300.517+686.158+300.787+682.75+300.969L682.906+326.688L693.25+308.75L693.375+300.438ZM683+348.312L683.094+363.969C686.923+363.376+690.993+362.828+695.281+362.375L693.25+353.812L683+348.312ZM695.969+365.375C691.421+365.856+687.131+366.418+683.094+367.062L683.094+368.062C687.569+367.241+692.072+366.369+696.062+365.688L695.969+365.375ZM696.75+368.594C692.194+369.397+688.471+370.074+683.125+371.094L683.125+372.656C687.143+371.921+692.894+371.089+697.156+370.375L696.75+368.594ZM697.844+373.312C693.379+374.059+687.358+374.916+683.156+375.688L683.188+382.594L699.375+379.812L697.844+373.312ZM683.5+392.281L684.156+404.188C686.995+404.099+690.168+403.994+691.969+403.938L683.5+392.281ZM694.125+406.875C691.732+406.95+689.816+407.014+685.375+407.156C684.848+407.173+684.821+407.171+684.312+407.188L685.312+425.75L701.656+417.25L694.125+406.875ZM685.688+432.281L686.438+446.219C690.027+449.581+694.54+453.424+699.531+457.406L699.375+454.688L685.688+432.281ZM686.688+450.531L687.562+466.625C688.892+468.061+690.111+469.438+691.625+470.969C694.303+473.673+697.395+476.601+700.812+479.781L699.75+461.469C694.761+457.533+690.215+453.712+686.688+450.531ZM687.812+471.281L688.281+479.969C690.481+482.09+696.385+487.787+696.281+487.688C698.117+489.459+699.779+491.186+701.562+492.938L701.062+484.125C700.714+483.805+700.161+483.3+699.906+483.062C695.914+479.364+692.538+476.162+689.5+473.094C688.871+472.459+688.412+471.901+687.812+471.281ZM689+493.562L689.969+511.281L700.906+525.75L701.406+505.062C699.781+503.435+698.068+501.817+696.469+500.188C693.506+497.656+691.472+495.746+689+493.562Z" opacity="1" fill="#1c2a4d"/>
<path d="M651.991+689.3L656.471+689.3L656.471+704.135L651.991+704.135L651.991+689.3Z" opacity="0.619643" fill="#e2f3dc"/>
<path d="M626.275+704.548L629.298+704.548L629.298+714.705L626.275+714.705L626.275+704.548Z" opacity="0.619643" fill="#e2f3dc"/>
<path d="M607.92+684.627L614.691+684.627L614.691+697.196L607.92+697.196L607.92+684.627Z" opacity="0.619643" fill="#e2f3dc"/>
<path d="M580.537+713.768L585.827+713.768L585.827+726.215L580.537+726.215L580.537+713.768Z" opacity="0.619643" fill="#e2f3dc"/>
<path d="M567.988+694.674L570.677+694.674L570.677+703.576L567.988+703.576L567.988+694.674Z" opacity="0.619643" fill="#e2f3dc"/>
<path d="M544.599+700.82L546.685+700.82L546.685+715.985L544.599+715.985L544.599+700.82Z" opacity="0.619643" fill="#e2f3dc"/>
<path d="M535.932+724.133L539.315+724.133L539.315+730.987L535.932+730.987L535.932+724.133Z" opacity="0.619643" fill="#e2f3dc"/>
<path d="M500.015+729.073L503.386+729.073L503.386+738.206L500.015+738.206L500.015+729.073Z" opacity="0.619643" fill="#e2f3dc"/>
<path d="M473.717+724.721L477.411+724.721L477.411+737.387L473.717+737.387L473.717+724.721Z" opacity="0.619643" fill="#e2f3dc"/>
<path d="M484.176+707.342L486.639+707.342L486.639+715.787L484.176+715.787L484.176+707.342Z" opacity="0.619643" fill="#e2f3dc"/>
<path d="M506.975+705.182L511.607+705.182L511.607+712.84L506.975+712.84L506.975+705.182Z" opacity="0.619643" fill="#e2f3dc"/>
<path d="M445.141+720.357L447.823+720.357L447.823+730.397L445.141+730.397L445.141+720.357Z" opacity="0.619643" fill="#e2f3dc"/>
<path d="M423.036+720.47L426.071+720.47L426.071+728.347L423.036+728.347L423.036+720.47Z" opacity="0.619643" fill="#e2f3dc"/>
<path d="M395.863+731.039L399.24+731.039L399.24+739.032L395.863+739.032L395.863+731.039Z" opacity="0.619643" fill="#e2f3dc"/>
<path d="M601.541+786.548L604.693+786.548L604.693+793.337L601.541+793.337L601.541+786.548Z" opacity="0.619643" fill="#e2f3dc"/>
<path d="M579.904+786.436L582.861+786.436L582.861+804.426L579.904+804.426L579.904+786.436Z" opacity="0.619643" fill="#e2f3dc"/>
<path d="M556.962+795.818L560.739+795.818L560.739+803.27L556.962+803.27L556.962+795.818Z" opacity="0.619643" fill="#e2f3dc"/>
<path d="M531.474+790.829L535.428+790.829L535.428+796.612L531.474+796.612L531.474+790.829Z" opacity="0.619643" fill="#e2f3dc"/>
<path d="M451.428+792.761L457.78+792.761L457.78+800.287L451.428+800.287L451.428+792.761Z" opacity="0.619643" fill="#e2f3dc"/>
<path d="M484.89+793.731L495.27+793.731L495.27+804.465L484.89+804.465L484.89+793.731Z" opacity="0.619643" fill="#e2f3dc"/>
<path d="M508.196+794.019L513.055+794.019L513.055+799.699L508.196+799.699L508.196+794.019Z" opacity="0.619643" fill="#e2f3dc"/>
<path d="M473.951+802.301L478.847+802.301L478.847+806.694L473.951+806.694L473.951+802.301Z" opacity="0.619643" fill="#e2f3dc"/>
<path d="M432.319+798.777L436.302+798.777L436.302+808.037L432.319+808.037L432.319+798.777Z" opacity="0.619643" fill="#e2f3dc"/>
<path d="M402.821+798.824L410.217+798.824L410.217+805.865L402.821+805.865L402.821+798.824Z" opacity="0.619643" fill="#e2f3dc"/>
<path d="M420.354+798.301L423.963+798.301L423.963+802.657L420.354+802.657L420.354+798.301Z" opacity="0.619643" fill="#e2f3dc"/>
<path d="M385.792+808.635L391.695+808.635L391.695+813.83L385.792+813.83L385.792+808.635Z" opacity="0.619643" fill="#e2f3dc"/>
<path d="M365.881+797.883L371.047+797.883L371.047+806.276L365.881+806.276L365.881+797.883Z" opacity="0.619643" fill="#e2f3dc"/>
<path d="M351.015+804.15L355.557+804.15L355.557+811.881L351.015+811.881L351.015+804.15Z" opacity="0.619643" fill="#e2f3dc"/>
<path d="M331.738+807.069L336.075+807.069L336.075+812.991L331.738+812.991L331.738+807.069Z" opacity="0.619643" fill="#e2f3dc"/>
<path d="M314.289+800.252L318.085+800.252L318.085+815.948L314.289+815.948L314.289+800.252Z" opacity="0.619643" fill="#e2f3dc"/>
<path d="M341.941+801.697L345.447+801.697L345.447+805.148L341.941+805.148L341.941+801.697Z" opacity="0.619643" fill="#e2f3dc"/>
<path d="M300.611+803.156L305.616+803.156L305.616+807.592L300.611+807.592L300.611+803.156Z" opacity="0.619643" fill="#e2f3dc"/>
<path d="M315.619+810.909L316.452+810.909L316.452+811.185L315.619+811.185L315.619+810.909Z" opacity="1" fill="#1c2a4d"/>
<path d="M296.814+815.614L302.171+815.614L302.171+822.528L296.814+822.528L296.814+815.614Z" opacity="0.619643" fill="#e2f3dc"/>
<path d="M275.01+819.305L279.39+819.305L279.39+827.622L275.01+827.622L275.01+819.305Z" opacity="0.619643" fill="#e2f3dc"/>
<path d="M252.027+821.407L256.026+821.407L256.026+826.096L252.027+826.096L252.027+821.407Z" opacity="0.619643" fill="#e2f3dc"/>
<path d="M113.345+812.88L116.934+812.88L116.934+824.445L113.345+824.445L113.345+812.88Z" opacity="0.619643" fill="#e2f3dc"/>
<path d="M100.067+819.81L103.54+819.81L103.54+824.678L100.067+824.678L100.067+819.81Z" opacity="0.619643" fill="#e2f3dc"/>
<path d="M78.9361+813.556L83.8899+813.556L83.8899+823.865L78.9361+823.865L78.9361+813.556Z" opacity="0.619643" fill="#e2f3dc"/>
<path d="M61.9921+819.75L63.7203+819.75L63.7203+826.634L61.9921+826.634L61.9921+819.75Z" opacity="0.619643" fill="#e2f3dc"/>
<path d="M39.9154+814.697L45.6596+814.697L45.6596+821.759L39.9154+821.759L39.9154+814.697Z" opacity="0.619643" fill="#e2f3dc"/>
<path d="M25.1413+819.729L28.103+819.729L28.103+830.612L25.1413+830.612L25.1413+819.729Z" opacity="0.619643" fill="#e2f3dc"/>
<path d="M49.7368+821.534L52.9152+821.534L52.9152+827.177L49.7368+827.177L49.7368+821.534Z" opacity="0.619643" fill="#e2f3dc"/>
<path d="M10.0104+817.528L16.0491+817.528L16.0491+823.814L10.0104+823.814L10.0104+817.528Z" opacity="0.619643" fill="#e2f3dc"/>
<path d="M-6.29039+825.52L6.5304+825.52L6.5304+827.746L-6.29039+827.746L-6.29039+825.52Z" opacity="0.619643" fill="#e2f3dc"/>
<path d="M12.6961+848.13L33.0544+848.13L33.0544+861.61L12.6961+861.61L12.6961+848.13Z" opacity="0.386404" fill="#466885"/>
<path d="M68.2773+848.134L84.288+848.134L84.288+868.68L68.2773+868.68L68.2773+848.134Z" opacity="0.474061" fill="#466885"/>
<path d="M50.6754+890.405L59.1501+890.405L59.1501+903.641L50.6754+903.641L50.6754+890.405Z" opacity="0.303571" fill="#466885"/>
<path d="M85.7513+895.176L93.2692+895.176L93.2692+929.216L85.7513+929.216L85.7513+895.176Z" opacity="0.257143" fill="#466885"/>
<path d="M62.9367+929.465L72.0186+929.465L72.0186+940.783L62.9367+940.783L62.9367+929.465Z" opacity="1" fill="#466885"/>
<path d="M-2.22896+904.863L14.3291+904.863L14.3291+935.117L-2.22896+935.117L-2.22896+904.863Z" opacity="0.268683" fill="#6db4c8"/>
<path d="M33.7485+927.868L40.9168+927.868L40.9168+938.723L33.7485+938.723L33.7485+927.868Z" opacity="0.366548" fill="#6db4c8"/>
<path d="M71.8507+880.4L79.7035+880.4L79.7035+895.745L71.8507+895.745L71.8507+880.4Z" opacity="0.386404" fill="#6db4c8"/>
<path d="M26.3477+869.262L36.5699+869.262L36.5699+886.084L26.3477+886.084L26.3477+869.262Z" opacity="0.19292" fill="#414e7b"/>
<path d="M11.8917+949.273L21.6175+949.273L21.6175+958.819L11.8917+958.819L11.8917+949.273Z" opacity="0.2625" fill="#414e7b"/>
<path d="M172.744+544.286L238.166+511.445L251.686+516.027L187.258+548.339" opacity="0.129204" fill="#5e88aa"/>
<path d="M250.329+526.846L291.409+506.302L300.258+511.001L259.033+532.195L250.329+526.846Z" opacity="0.129204" fill="#5e88aa"/>
<path d="M462.97+386.021L504.05+365.477L512.9+370.176L471.675+391.37L462.97+386.021Z" opacity="0.129204" fill="#5e88aa"/>
<path d="M443.856+411.518L484.937+390.974L493.786+395.673L452.561+416.867L443.856+411.518Z" opacity="0.129204" fill="#5e88aa"/>
<path d="M362.533+441.726L403.614+421.182L412.463+425.881L371.238+447.075L362.533+441.726Z" opacity="0.129204" fill="#5e88aa"/>
<path d="M486.455+429.205L527.535+408.661L536.385+413.36L495.159+434.554L486.455+429.205Z" opacity="0.129204" fill="#5e88aa"/>
<path d="M249.319+578.82L290.399+558.276L299.249+562.975L258.024+584.169L249.319+578.82Z" opacity="0.129204" fill="#5e88aa"/>
<path d="M483.151+482.207L524.232+461.663L533.081+466.362L491.856+487.556L483.151+482.207Z" opacity="0.129204" fill="#5e88aa"/>
<path d="M414.031+69.25C420.309+76.247+424.25+85.3907+424.25+95.5312C424.25+117.36+406.548+135.063+384.719+135.062C376.477+135.062+368.834+132.534+362.5+128.219C369.735+136.267+380.107+141.438+391.781+141.438C413.61+141.437+431.312+123.735+431.312+101.906C431.312+88.3349+424.452+76.367+414.031+69.25Z" opacity="0.338104" fill="#b7d2d5"/>
<path d="M422.233+94.1712C422.233+94.1712+425.586+97.945+420.804+100.185" opacity="0.338104" fill="#b7d2d5"/>
<path d="M419.812+107.232C419.812+107.232+422.243+112.041+415.311+114.368" opacity="0.338104" fill="#b7d2d5"/>
<path d="M416.841+103.446C416.841+103.446+418.59+107.577+414.325+110.278" opacity="0.338104" fill="#b7d2d5"/>
<path d="M420.526+84.2197C420.526+84.2197+423.93+86.2526+420.728+89.6864" opacity="0.338104" fill="#b7d2d5"/>
<path d="M412.6+118.453C412.6+118.453+412.069+124.982+406.954+124.068" opacity="0.338104" fill="#b7d2d5"/>
<path d="M413.121+112.656C413.121+112.656+414.76+115.181+412.037+115.835" opacity="0.338104" fill="#b7d2d5"/>
<path d="M417.478+115.291C417.478+115.291+418.205+117.659+415.386+117.5" opacity="0.338104" fill="#b7d2d5"/>
<path d="M421.079+101.403C421.079+101.403+423.173+102.521+421.113+104.315" opacity="0.338104" fill="#b7d2d5"/>
<path d="M398.671+129.161C398.671+129.161+402.15+130.987+404.201+127.184" opacity="0.338104" fill="#b7d2d5"/>
<path d="M408.527+119.52C408.527+119.52+408.727+123.416+405.024+123.446" opacity="0.338104" fill="#b7d2d5"/>
<path d="M407.946+125.157C407.946+125.157+407.609+127.305+406.091+126.729" opacity="0.338104" fill="#b7d2d5"/>
<path d="M409.704+113.731C409.704+113.731+411.015+116.853+407.837+117.412" opacity="0.338104" fill="#b7d2d5"/>
<path d="M393.512+132.129C393.512+132.129+395.447+133.977+397.167+131.605" opacity="0.338104" fill="#b7d2d5"/>
<path d="M399.122+127.746C399.122+127.746+399.013+129.837+396.226+129.15" opacity="0.338104" fill="#b7d2d5"/>
<path d="M388.679+133.141C388.679+133.141+390.319+134.55+391.78+132.761" opacity="0.338104" fill="#b7d2d5"/>
<path d="M391.676+130.316C391.676+130.316+393.485+131.56+394.631+129.549" opacity="0.338104" fill="#b7d2d5"/>
<path d="M384.81+132.022C384.81+132.022+385.86+133.675+387.452+132.155" opacity="0.338104" fill="#b7d2d5"/>
<path d="M118.835+903.784L129.404+903.784L129.404+932.126L118.835+932.126L118.835+903.784Z" opacity="1" fill="#1c2a4d"/>
<path d="M144.776+919.156L152.462+919.156L152.462+934.048L144.776+934.048L144.776+919.156Z" opacity="0.275" fill="#466885"/>
<path d="M110.669+853.824L115.473+853.824L115.473+873.52L110.669+873.52L110.669+853.824Z" opacity="1" fill="#1c2a4d"/>
<path d="M114.992+942.694L121.237+942.694L121.237+949.9L114.992+949.9L114.992+942.694Z" opacity="0.275" fill="#466885"/>
<path d="M382+769.469L374.344+769.656C375.869+771.466+377.437+773.421+378.906+775.094L387.781+775L382+769.469ZM370.5+769.75L363.594+769.938C365.182+771.804+366.556+773.385+368.094+775.188L375.031+775.125C373.555+773.418+372.034+771.592+370.5+769.75ZM359.688+770.031L331.812+770.75L338.156+775.531L364.188+775.25C362.738+773.547+361.496+772.104+360+770.344C359.988+770.33+359.762+770.108+359.688+770.031Z" opacity="0.316071" fill="#5e88aa"/>
<path d="M473.312+766.781L437.188+767.688C438.271+768.84+440.902+771.622+441.375+772.125C441.598+772.362+441.689+772.487+441.906+772.719L479.062+772.312L473.312+766.781ZM433.188+767.781L423.125+768.031L429.469+772.844L437.844+772.75C436.598+771.431+434.988+769.742+434.5+769.219C433.991+768.674+433.646+768.282+433.188+767.781Z" opacity="0.316071" fill="#5e88aa"/>
<path d="M258.852+781.422L309.05+780.169L314.813+785.675L265.201+786.229L258.852+781.422Z" opacity="0.316071" fill="#5e88aa"/>
<path d="M508.5+773.781L485.188+774.375C486.23+775.764+487.91+777.846+489.25+779.562L514.281+779.281L508.5+773.781ZM481.625+774.438L458.312+775.031L464.656+779.844L485.5+779.594C484.159+777.856+482.681+775.879+481.625+774.438Z" opacity="0.121908" fill="url(#LinearGradient_29)"/>
</g>
<g id="Layer 11" vectornator:layerName="Layer 11">
<path d="M568.062+397.062L586.719+503.094L606.156+519.75L591.5+430.812L568.062+397.062Z" opacity="1" fill="#414e7b"/>
<path d="M565.469+382.219L568.062+397.062L591.5+430.812L606.156+519.75L614.125+526.562L598.062+429.188L565.469+382.219Z" opacity="1" fill="#b2eee4"/>
<path d="M572.469+422.094L574.594+434.188C583.468+451.378+591.729+466.708+599.781+481.125L596.781+462.906C595.299+460.397+594.639+459.361+593.062+456.688C592.999+456.579+587.412+447.135+585.281+443.531C584.062+441.468+576.666+429.326+577+429.875C575.081+426.722+574.074+424.805+572.469+422.094Z" opacity="0.414159" fill="#e2f3dc"/>
</g>
<g id="Layer 10" vectornator:layerName="Layer 10">
<path d="M443.938+481.469C443.212+490.678+426.422+505.65+402.188+517.719C379.002+529.265+356.519+534.391+345.969+531.375C345.848+532.904+346.032+534.33+346.844+535.5C352.545+543.713+380.085+538.948+408.344+524.875C436.602+510.802+454.889+492.744+449.188+484.531C448.168+483.062+446.233+482.129+443.938+481.469Z" opacity="1" fill="url(#LinearGradient_30)"/>
<path d="M433.969+480.688C433.414+480.721+432.764+480.823+432.188+480.875C434.25+480.689+436.124+480.671+437.906+480.719C436.64+480.675+435.392+480.603+433.969+480.688ZM438.875+480.719C440.766+480.82+442.489+481.052+443.938+481.469C442.485+481.051+440.752+480.834+438.875+480.719Z" opacity="1" fill="#e2f3dc"/>
<path d="M437.906+480.719C436.124+480.671+434.25+480.689+432.188+480.875C430.32+481.05+428.388+481.287+426.312+481.656C425.187+481.856+424.054+482.088+422.875+482.344C420.4+482.88+417.83+483.537+415.156+484.312C414.388+484.535+413.689+484.695+412.906+484.938C412.675+485.009+412.42+485.114+412.188+485.188C408.978+486.199+405.667+487.363+402.281+488.688C401.28+489.079+400.294+489.488+399.281+489.906C395.465+491.483+391.588+493.182+387.688+495.125C363.454+507.193+346.695+522.166+345.969+531.375C356.519+534.391+379.002+529.265+402.188+517.719C426.422+505.65+443.212+490.678+443.938+481.469C442.489+481.052+440.766+480.82+438.875+480.719C438.573+480.7+438.218+480.729+437.906+480.719Z" opacity="1" fill="#b2eee4"/>
<path d="M434.656+480.562C433.913+480.601+432.972+480.801+432.188+480.875C432.764+480.823+433.414+480.721+433.969+480.688C435.392+480.603+436.64+480.675+437.906+480.719C438.222+480.727+438.569+480.702+438.875+480.719C440.752+480.834+442.485+481.051+443.938+481.469C441.42+480.745+438.403+480.367+434.656+480.562Z" opacity="1" fill="#e2f3dc"/>
</g>
<g id="Layer 8" vectornator:layerName="Layer 8">
<path d="M164.406+889.031C162.55+889.074+160.7+889.13+158.938+889.281C160.702+889.13+162.548+889.074+164.406+889.031ZM155.062+889.75C153.272+889.988+151.53+890.257+149.844+890.594C151.519+890.259+153.285+889.987+155.062+889.75ZM146.656+891.281C145.094+891.661+143.591+892.08+142.125+892.531C143.593+892.08+145.092+891.661+146.656+891.281ZM138.781+893.625C137.371+894.13+136.031+894.662+134.719+895.219C136.026+894.664+137.377+894.128+138.781+893.625ZM132.281+896.281C130.908+896.921+129.631+897.574+128.375+898.25C129.629+897.575+130.911+896.919+132.281+896.281ZM126.188+899.438C125.706+899.718+125.306+899.967+124.844+900.25C125.299+899.972+125.714+899.713+126.188+899.438Z" opacity="1" fill="#6184a3"/>
<path d="M147.52+889.773" opacity="1" fill="#1c2a4d"/>
<path d="M301.438+777.406C295.265+777.67+288.397+778.221+280.469+779.219C288.386+778.222+295.318+777.653+301.438+777.406Z" opacity="1" fill="#1c2a4d"/>
<path d="M206.661+738.192C199.794+738.065+192.39+738.742+184.442+740.317C106.176+755.829+117.875+834.571+138.879+901.089C150.92+895.537+207.665+872.483+207.451+873.523C207.451+873.523+171.117+896.748+146.178+915.606C148.364+915.516+263.249+894.238+279.734+851.602C280.898+848.59+230.617+832.237+229.057+831.915C228.322+831.763+278.719+806.467+278.411+804.192C271.727+776.765+246.792+738.937+206.661+738.192Z" opacity="1" fill="#101330"/>
<path d="M122.402+872.947C122.402+872.947+136.456+865.361+156.555+869.256C156.555+869.256+135.783+877.653+124.104+888.501L122.402+872.947Z" opacity="1" fill="#414e7b"/>
<path d="M166.465+814.723C166.465+814.723+289.388+814.536+291.709+814.873C291.709+814.873+242.389+757.176+166.465+814.723Z" opacity="1" fill="#1c2a4d"/>
<path d="M148.484+796.487C148.484+796.487+153.185+768.043+187.54+776.203" opacity="1" fill="#1c2a4d"/>
<path d="M123.716+855.784C123.716+855.784+133.324+820.36+182.96+829.53" opacity="1" fill="#414e7b"/>
<path d="M227.113+850.565C227.113+850.565+236.449+835.532+253.981+848.844" opacity="1" fill="#1c2a4d"/>
<path d="M227.018+881.29C227.018+881.29+245.147+834.019+306.296+873.663" opacity="1" fill="#1c2a4d"/>
<path d="M154.049+749.795C154.049+749.795+169.62+727.666+192.991+749.155" opacity="1" fill="#414e7b"/>
<path d="M611.252+1213.78L495.716+1183.15L611.252+1213.78Z" opacity="1" fill="#0a0c1c"/>
</g>
<g id="Layer 7" vectornator:layerName="Layer 7">
<path stroke="#000000" stroke-width="0.64" d="M779.204+792.17C779.204+792.17+803.856+785.318+818.909+745.761" fill="none" stroke-linecap="butt" opacity="1" stroke-linejoin="round"/>
<path stroke="#000000" stroke-width="1.61" d="M790.168+746.806C790.168+746.806+776.625+805.53+771.94+815.471" fill="none" stroke-linecap="butt" opacity="1" stroke-linejoin="round"/>
<path stroke="#000000" stroke-width="1.09" d="M772.553+704.56C772.553+704.56+771.354+763.216+765.31+818.083" fill="none" stroke-linecap="butt" opacity="1" stroke-linejoin="round"/>
<path d="M787.094+559.688C784.166+559.683+781.025+559.942+777.719+560.5C776.211+560.754+774.821+561.299+773.469+562.031C777.339+563.221+781.991+564.184+788.031+565.125C789.279+565.32+789.342+565.339+792.719+565.844C800.255+566.971+803.95+567.644+807.844+568.719C809.401+569.149+810.861+569.663+812.344+570.156C806.123+563.567+797.926+559.705+787.094+559.688ZM768.969+565.719C764.092+570.967+760.578+580.167+757.938+591.531C771.189+584.254+785.702+580.178+799.906+579.969C806.244+579.876+820.767+583.753+820.438+585.094C820.107+586.434+775.516+586.564+756.5+598.188C755.318+604.556+754.464+611.683+753.75+619.094C765.133+611.685+791.983+606.196+795.07+606.306C798.158+606.417+784.171+603.684+784.5+602.344C784.83+601.003+797.506+602.302+807.781+602.844C808.381+602.875+808.666+602.919+809+602.938C816.487+603.337+821.883+603.897+826.625+604.844C825.016+594.268+822.264+585.005+818.031+577.688C814.427+576.053+779.527+566.386+768.969+565.719ZM803.531+607.562C803.595+607.639+803.604+607.729+803.656+607.812C812.552+612.203+821.101+618.072+828.125+624.719C827.973+619.66+827.656+614.752+827.125+610.094C822.308+608.977+816.819+608.339+808.719+607.906C808.387+607.888+808.13+607.875+807.531+607.844C805.82+607.754+804.855+607.655+803.531+607.562ZM794.594+611.281C786.39+611.381+777.692+613.245+769.546+616.489C763.664+618.832+758.069+621.894+753.156+625.531C752.485+634.202+752.103+643.44+751.906+652.875C760.343+650.291+767.493+647.563+774.031+648.25C787.205+649.634+802.299+657.296+802.375+657.938C802.412+658.25+772.357+651.709+751.844+658.156C751.675+671.424+751.974+685.038+752.438+698.5C761.721+694.856+771.948+693.053+782.344+693.375C795.685+693.789+809.043+697.551+820.562+704.094C822.223+694.79+823.713+685.419+824.906+676.125C815.923+673.432+803.568+668.107+803.711+667.098C803.912+665.682+819.769+669.38+825.5+671.062C826.5+662.556+827.298+654.131+827.719+646C815.265+636.381+789.901+628.09+790.062+626.719C790.224+625.348+815.91+631.021+827.875+639.812C827.958+637.131+828.123+634.389+828.125+631.781C820.593+623.725+810.329+616.505+799.75+611.531C798.049+611.387+796.351+611.259+794.594+611.281ZM782.312+698.375C771.912+698.04+761.678+699.87+752.594+703.75C752.97+713.348+753.539+722.331+754.094+731.375C758.446+729.303+764.035+728.271+770.906+728.344C778.818+728.428+797.58+733.378+797.25+734.719C796.92+736.06+761.81+731.821+754.406+736.781C755.135+747.986+755.9+755.806+756.688+765.156C761.48+763.962+766.976+763.344+773.375+763.438C779.826+763.532+786.61+764.208+793.938+765.344C796.548+765.748+797.751+765.95+802.062+766.719C803.475+766.97+804.823+767.384+806.156+767.938C807.124+764.174+808.048+760.814+809.031+756.812C806.416+755.115+803.734+753.533+801+752.312C791.071+747.881+773.443+752.737+772.625+751.625C771.807+750.513+782.746+745.512+787.808+745.507C792.87+745.502+797.328+745.204+803.031+747.75C805.466+748.837+807.893+750.152+810.25+751.594C812.192+743.511+814.166+735.554+816+726.844C815.082+725.789+780.343+707.014+780.438+705.781C780.543+704.404+807.78+711.306+817.188+720.906C817.971+717.041+818.8+713.237+819.531+709.312C808.449+702.645+795.372+698.797+782.312+698.375Z" opacity="1" fill="#0a0c1c"/>
<path d="M-12.234+967.47L26.1325+961.678L85.6059+952.701L118.219+957.624L206.461+925.274L475.735+826.556L624.033+813.633L673.876+788.404L867.709+824.71L860.325+1211.15L-7.92658+1211.15L-12.234+967.47Z" opacity="1" fill="#1c2a4d"/>
<path d="M-1.37131+1254.01L186.017+1058.68L362.9+907.418L247.344+1063.22L97.0713+1249.55L-1.37131+1254.01Z" opacity="1" fill="#1d2240"/>
<path d="M219.525+1228.63L367.823+1016.95L268.137+1226.17L219.525+1228.63Z" opacity="1" fill="#1d2240"/>
<path d="M751.812+823.125L591.812+910.5L551.219+945.688C584.953+1050.33+604.19+1106.07+629.375+1168.44C633.48+1178.6+637.456+1187.28+645.594+1204.31C645.99+1205.14+645.978+1205.17+646.375+1206C651.04+1215.76+654.721+1223.73+657.969+1231L743.188+1229.84L873.625+1190.47L863.781+984.344L799.781+884.031L807.781+844.031L651.5+1024.34L687.188+922.188L751.812+823.125ZM691.094+878.781C690.082+879.188+654.482+915.138+654.625+915.812C654.713+916.226+604.746+983.321+599.875+980.719C597.323+979.356+639.122+920.475+639.625+917.375C640.215+913.738+692.314+878.291+691.094+878.781ZM543.844+952.062L499.094+990.844L323.938+1235.56L648.188+1231.12C645.345+1224.87+642.103+1217.94+638.25+1209.88C637.853+1209.04+637.866+1209.05+637.469+1208.22C629.253+1191.02+625.227+1182.2+621.031+1171.81C596.049+1109.95+576.875+1054.42+543.844+952.062Z" opacity="1" fill="#1d2240"/>
<path d="M373.459+1271.13L476.408+1081.21L526.834+1022.1L451.755+1210.57L428.839+1295.75L373.459+1271.13Z" opacity="1" fill="#131730"/>
<path d="M643.99+1224.45C643.99+1224.45+511.573+1149.55+511.852+1149.01C555.959+1062.98+621.859+1003.07+691.512+1006.17L734.521+1098.37L720.894+995.119C720.894+995.119+840.431+984.503+882.97+1045.56C900.987+1071.42+898.765+1117.18+888.022+1156.63C873.4+1210.32+846.518+1259.9+846.518+1259.9L709.216+1267.06L643.99+1224.45Z" opacity="1" fill="#131730"/>
<path d="M668.084+1416.52" opacity="1" fill="#1c2a4d"/>
<path d="M778.004+626.946C778.004+626.946+770.432+618.519+760.22+634.22" opacity="1" fill="#1c2a4d"/>
<path d="M815.845+648.907C815.845+648.907+815.551+639.939+803.082+646.265" opacity="1" fill="#1c2a4d"/>
<path d="M748.517+667.017C748.517+667.017+756.474+653.307+769.044+661.334" opacity="1" fill="#1c2a4d"/>
<path d="M788.777+676.121C788.777+676.121+794.001+671.903+799.531+673.321C802.527+674.088+805.612+676.509+808.006+682.148" opacity="1" fill="#1c2a4d"/>
<path d="M758.707+713.252C758.707+713.252+759.094+702.48+771.521+708.226" opacity="1" fill="#1c2a4d"/>
<path d="M749.24+571.03C749.24+571.03+758.453+557.682+769.379+576.12" opacity="1" fill="#1c2a4d"/>
<path d="M740.43+735.269C740.43+735.269+745.785+710.885+769.817+721.9" opacity="1" fill="#1c2a4d"/>
<path d="M789.707+758.369C789.707+758.369+805.677+746.01+814.64+764.042" opacity="1" fill="#414e7b"/>
<path d="M805.087+661.092C805.087+661.092+823.508+650.777+831.746+667.89" opacity="1" fill="#414e7b"/>
<path d="M810.402+594.821C810.402+594.821+811.284+582.162+826.822+594.849" opacity="1" fill="#414e7b"/>
<path d="M770.936+604.775C770.936+604.775+777.656+583.868+798.366+597.555" opacity="1" fill="#414e7b"/>
<path d="M748.667+624.27C748.667+624.27+754.387+608.534+765.43+617.101" opacity="1" fill="#414e7b"/>
<path d="M708.766+807.149" opacity="1" fill="#101330"/>
<path stroke="#000000" stroke-width="1.09" d="M806.782+682.207C806.782+682.207+790.937+721.097+770.876+737.995" fill="none" stroke-linecap="butt" opacity="1" stroke-linejoin="round"/>
<path stroke="#000000" stroke-width="0.64" d="M734.001+625.078C734.001+625.078+739.824+658.563+766.383+671.478" fill="none" stroke-linecap="butt" opacity="1" stroke-linejoin="round"/>
<path stroke="#000000" stroke-width="0.64" d="M723.3+619.276C723.3+619.276+725.881+631.946+737.032+636.807" fill="none" stroke-linecap="butt" opacity="1" stroke-linejoin="round"/>
</g>
<g id="Layer 9" vectornator:layerName="Layer 9">
<path d="M749.438+972.469L740.97+1113.72L729.344+972.594C721.066+972.989+712.951+973.671+705.125+974.844L699.272+1036.08L690.688+977.531C685.061+978.737+679.566+980.152+674.188+981.719L690.131+1080.08L663+985.281C659.355+986.542+642.778+993.971+639.254+995.381L724.094+1219.38L864.531+1212.25L873.594+1004C871.785+1003.17+870.045+1002.55+868.25+1001.75L750.719+1210.62L843.562+991.719C834.788+988.503+826.211+985.774+817.781+983.406L750.33+1157.76L800.906+979.031C794.106+977.516+787.408+976.212+780.844+975.219L755.931+1055.97L766+973.5C760.384+972.96+754.873+972.646+749.438+972.469ZM621.125+1004.25C615.341+1007.55+615.786+1007.09+610.403+1010.7C610.403+1010.7+621.262+1018.63+641.565+1065.22C661.868+1111.81+666.482+1156.6+666.482+1156.6L586.312+1027.78C582.952+1030.44+579.738+1033.14+576.562+1035.88L671.531+1189.31C671.531+1189.31+653.531+1181.94+632.109+1158.09C612.475+1136.23+565.188+1046.12+565.188+1046.12C562.65+1048.53+560.214+1050.95+557.812+1053.38L589.094+1111.56L547.438+1064.28C544.404+1067.62+541.716+1070.86+538.938+1074.16L662.344+1215.94L531.625+1083.09C528.791+1086.68+526.177+1090.07+523.656+1093.5L659.969+1217.97L669.469+1222.16L721.688+1219.5L621.125+1004.25ZM715.381+1035.06L737.688+1180.94C737.688+1180.94+715.316+1171.32+708.414+1100.64C704.828+1063.93+715.381+1035.06+715.381+1035.06ZM514.75+1105.91C512.09+1109.84+509.9+1113.35+507.719+1116.84L569.003+1165.78L499.562+1130.53C494.885+1138.87+492.312+1144.22+492.312+1144.22L657.344+1216.81L514.75+1105.91ZM818.73+1147.17C800.736+1168.86+779.513+1181.32+779.513+1181.32L835.339+1087.66C835.339+1087.66+836.724+1125.49+818.73+1147.17Z" opacity="1" fill="#0a0c1c"/>
<path d="M485.226+1157.57L611.252+1213.78L477.586+1184.63L485.226+1157.57Z" opacity="1" fill="#0a0c1c"/>
<path d="M157.857+1221.18L313.235+976.618L201.069+1083.27L99.016+1210.14L157.857+1221.18Z" opacity="1" fill="#131730"/>
<path d="M452.688+836L365.094+867.625C364.418+870.733+363.726+873.72+363.094+877.094L452.688+836ZM357.344+870.406L270.688+901.688C282.029+901.611+295.035+901.906+308.312+902.219L355.375+880.625C355.999+877.084+356.688+873.636+357.344+870.406ZM270.156+904.688C267.317+904.709+264.695+904.795+261.938+904.844L117.75+956.906L166.125+967.438L301.969+905.125C291.076+904.911+279.72+904.615+270.156+904.688Z" opacity="1" fill="#414e7b"/>
<path d="M234.22+768.477C234.22+768.477+250.8+751.065+261.244+776.642" opacity="1" fill="#414e7b"/>
<path d="M176.502+864.646" opacity="1" fill="#101330"/>
<path stroke="#000000" stroke-width="1.97" d="M226.25+959.532L226.249+959.533C212.671+945.91+198.168+899.241+193.178+883.417" fill="none" stroke-linecap="butt" opacity="1" stroke-linejoin="round"/>
<path stroke="#000000" stroke-width="2.29" d="M247.427+843.221C248.258+863.389+250.337+878.535+250.993+898.742C251.446+912.701+249.671+935.349+249.175+933.122L249.288+933.122" fill="none" stroke-linecap="butt" opacity="1" stroke-linejoin="round"/>
<path stroke="#000000" stroke-width="1" d="M200.676+957.983C200.676+957.983+193.496+946.882+192.507+945.439C187.918+938.748+184.503+932.281+180.537+925.115C168.895+904.083+161.765+883.231+153.25+860.387" fill="none" stroke-linecap="butt" opacity="1" stroke-linejoin="round"/>
<path stroke="#000000" stroke-width="1" d="M174.71+915.319C152.331+897.031+147.602+881.634+146.281+881.677" fill="none" stroke-linecap="butt" opacity="1" stroke-linejoin="round"/>
<path stroke="#000000" stroke-width="1.91" d="M265.418+808.865C265.418+808.865+271.345+840.246+249.137+868.745" fill="none" stroke-linecap="butt" opacity="1" stroke-linejoin="round"/>
<path stroke="#000000" stroke-width="0.75" d="M145.866+698.924C145.866+698.924+148.405+737.87+173.381+766.232" fill="none" stroke-linecap="butt" opacity="1" stroke-linejoin="round"/>
<path stroke="#000000" stroke-width="0.42" d="M130.626+698.501C130.626+698.501+131.896+708.237+148.829+718.82" fill="none" stroke-linecap="butt" opacity="1" stroke-linejoin="round"/>
<path d="M119.213+716.844C119.213+716.844+124.639+679.564+159.8+698.265" opacity="1" fill="#1c2a4d"/>
<path d="M138.768+733.222C138.768+733.222+144.538+695.379+192.84+720.216" opacity="1" fill="#101330"/>
<path d="M148.729+686.811C148.729+686.811+158.03+677.367+165.641+691.919" opacity="1" fill="#101330"/>
<path d="M127.402+731.202C127.402+731.202+126.092+716.752+137.861+713.402C140.062+712.776+142.719+712.538+145.928+712.855" opacity="1" fill="#101330"/>
<path d="M124.474+693.119C124.474+693.119+124.87+680.183+138.622+686.229" opacity="1" fill="#1c2a4d"/>
<path stroke="#000000" stroke-width="0.42" d="M156.744+687.346C156.744+687.346+158.329+699.07+147.128+707.91" fill="none" stroke-linecap="butt" opacity="1" stroke-linejoin="round"/>
<path d="M574.784+846.633L471.109+932.779L399.362+1072.97" opacity="1" fill="#414e7b"/>
<path d="M557.344+830.438L486.656+844.812L480.406+850.531C489.407+851.599+499.491+852.371+511.625+852.906C515.468+853.076+519.567+853.225+525.625+853.438L557.344+830.438ZM461.469+867.812L457.75+871.219C464.199+876.554+470.75+882.34+477.375+888.406L499.688+872.219C484.737+871.306+472.259+869.951+461.469+867.812ZM455.463+873.781L451.932+877L412.182+916.875C416.801+918.193+422.575+919.853+423.088+920C426.619+921.011+428.258+921.576+430.338+922.25L474.463+890.281C468.037+884.43+461.737+878.945+455.463+873.781ZM402.062+926.25L342+986.5L418.594+931C417.993+930.825+417.902+930.758+417.219+930.562C416.512+930.36+408.685+928.138+402.062+926.25Z" opacity="1" fill="#414e7b"/>
<path d="M1012.69+695.217" opacity="1" fill="#414e7b"/>
<path d="M414.625+866.094L387.75+882.312L363.656+896.844C365.461+896.646+366.912+896.496+370.344+896.125C376.334+895.478+379.507+895.046+384.312+894.5L414.625+866.094ZM374.469+903.719C373.147+903.863+372.61+903.943+371.219+904.094C367.564+904.488+366.062+904.629+364.094+904.844C357.401+905.574+352.487+906.192+347.125+906.844L324.344+920.594C325.14+920.671+326.775+920.831+327.219+920.875C338.18+921.962+345.372+922.499+352.875+923.062L360.625+916.688L374.469+903.719ZM321.5+922.312L295.438+938.062L283.781+951.312C284.035+952.208+284.311+953.133+284.531+953.875C286.064+957.982+287.496+961.882+290.625+970.5C290.836+971.079+291.243+972.22+291.688+973.469L350.688+924.875C343.58+924.315+337.13+923.845+327.031+922.844C324.223+922.565+322.993+922.456+321.5+922.312ZM280.219+955.406L245.125+995.375C244.909+996.527+244.798+997.268+244.438+999.125C244.435+999.14+243.602+1003.37+243.312+1005C243.123+1006.07+242.901+1007.24+242.594+1008.72C242.428+1009.52+241.827+1012.32+241.75+1012.69C241.658+1013.13+241.646+1013.34+241.562+1013.75C241.493+1014.13+241.414+1014.59+241.344+1014.97L286.406+977.844C285.343+974.116+284.417+971.165+283.312+967.219C282.824+965.474+280.985+958.364+280.219+955.406ZM231.844+1010.53L192.938+1054.84L230.375+1024C230.704+1019.68+231.209+1015.19+231.844+1010.53Z" opacity="1" fill="#414e7b"/>
<path d="M599.139+890.842L731.42+805.721L673.494+789.147L616.844+866.628L599.139+890.842Z" opacity="1" fill="#131730"/>
<path d="M83.874+960.205L69.249+978.767C85.9077+1002.1+103.698+1025.63+124.062+1051.2L124.562+1050.61C120.623+1041.69+116.017+1031.6+108.843+1016.39C108.582+1015.84+108.603+1015.85+108.343+1015.3C96.5713+990.337+89.5385+974.69+83.874+960.205ZM93.9062+957.125C99.2993+970.572+106.008+985.463+116.812+1008.38C117.073+1008.93+117.083+1008.92+117.344+1009.47C123.674+1022.89+128.126+1032.48+131.812+1040.72L158.938+1009.06C152.973+993.901+147.079+981.255+140.438+969.562L93.9062+957.125ZM150+972.125C154.942+981.393+155.663+994.892+160.251+1006.29L183+980.969L150+972.125ZM66.9062+980.5L-11.1875+1079.53L41.9688+1050.69L15.8125+1112L-9.28125+1205.41L121.594+1052.66C101.288+1027.18+83.5136+1003.7+66.9062+980.5Z" opacity="1" fill="#131730"/>
<path d="M617.128+844.528L667.959+791.381L623.751+813.651L617.128+844.528Z" opacity="1" fill="#414e7b"/>
</g>
</svg>
